<?xml version="1.0" encoding="UTF-8"?>
<svg id="icon" xmlns="http://www.w3.org/2000/svg" viewBox="0 0 400 400">
  <defs>
    <style>
      .cls-1 {
        fill: #509e2f;
      }
    </style>
  </defs>
  <path class="cls-1" d="M341,83H58.98v226h48.02v19h10v-19h158v19h10v-19h56V83Zm-10,216H68.98V93H331v206Z"/>
  <path class="cls-1" d="M317,107h-74v50h74v-50Zm-10,40h-54v-30h54v30Z"/>
  <path class="cls-1" d="M156,281c44.66,0,81-36.34,81-81s-36.34-81-81-81-81,36.34-81,81,36.34,81,81,81Zm0-152c39.15,0,71,31.85,71,71s-31.85,71-71,71-71-31.85-71-71,31.85-71,71-71Z"/>
  <path class="cls-1" d="M110.62,200.67c6.61,8.48,16.73,13.26,27.21,13.26,1.65,0,3.31-.13,4.96-.37,.41,.42,.83,.82,1.27,1.21l-21.7,37.59,3,2.71c1.79,1.61,3.76,3.04,5.86,4.25,5.32,3.07,11.23,4.64,17.21,4.64,3,0,6.02-.39,8.99-1.19,8.91-2.39,16.35-8.1,20.96-16.08,1.52-2.63,2.68-5.43,3.46-8.33l.17-.64v-.02c2.75-11.08-.14-22.61-7.6-31.06,.04-.1,.08-.2,.11-.3h44.87l.84-3.96c.5-2.36,.76-4.78,.76-7.2,0-19.04-15.49-34.52-34.52-34.52-2.21,0-4.42,.21-6.56,.62-11.31,2.17-20.63,9.78-25.12,20.21-.9,.08-1.78,.23-2.64,.43l-21.13-36.61-3.85,1.25c-2.29,.75-4.51,1.74-6.61,2.94-16.48,9.52-22.15,30.67-12.64,47.16,.81,1.4,1.72,2.74,2.7,4Zm45.86,8.74c-4.96,0-9-4.04-9-9s4.04-9,9-9,9,4.04,9,9-4.04,9-9,9Zm15.71,26.35l-.06,.24c-.55,1.97-1.35,3.88-2.39,5.68-3.27,5.67-8.56,9.73-14.89,11.42-6.33,1.69-12.94,.82-18.61-2.45-.33-.19-.66-.39-.99-.6l17.88-30.96c1.09,.2,2.21,.32,3.36,.32,4.53,0,8.7-1.6,11.97-4.26,4.24,5.89,5.67,13.41,3.74,20.61Zm9.62-64.66c1.53-.29,3.1-.44,4.67-.44,13.52,0,24.52,11,24.52,24.52,0,.39,0,.77-.03,1.16h-35.93c-1.24-5.67-5.03-10.39-10.09-12.92,3.46-6.35,9.59-10.92,16.86-12.32Zm-56.25-12.93c.34-.19,.68-.38,1.02-.56l16.78,29.08c-3.62,3.46-5.89,8.32-5.89,13.72,0,1.2,.12,2.38,.34,3.52-7.44,0-14.62-3.39-19.32-9.41-.7-.9-1.35-1.85-1.92-2.84-6.76-11.71-2.73-26.74,8.97-33.5Z"/>
  <rect class="cls-1" x="248" y="171" width="64" height="10"/>
  <rect class="cls-1" x="248" y="195" width="64" height="10"/>
  <rect class="cls-1" x="248" y="219" width="64" height="10"/>
  <rect class="cls-1" x="248" y="243" width="64" height="10"/>
  <rect class="cls-1" x="248" y="267" width="64" height="10"/>
</svg>