<?xml version="1.0" encoding="UTF-8"?>
<svg id="icon" xmlns="http://www.w3.org/2000/svg" viewBox="0 0 400 400">
  <defs>
    <style>
      .cls-1 {
        fill: #509e2f;
      }
    </style>
  </defs>
  <path class="cls-1" d="M297.39,108.71c-7.6-18.86-20.42-34.99-37.17-46.74-17.7-12.41-38.52-18.98-60.22-18.98s-42.52,6.56-60.22,18.98c-16.75,11.75-29.57,27.88-37.17,46.74-31.41,15.63-51.6,48.1-51.6,83.29,0,51.28,41.72,93,93,93,18.16,0,35.92-5.37,50.99-15.24v82.24h10v-82.24c15.07,9.88,32.83,15.24,50.99,15.24,51.28,0,93-41.72,93-93,0-35.18-20.19-67.65-51.6-83.29Zm-41.4,166.29c-18.47,0-36.48-6.22-50.99-17.53v-70.38l61.24-30.62-4.47-8.94-56.76,28.38v-39.91h-10v87.91l-72.76-36.38-4.47,8.94,77.24,38.62v22.38c-14.51,11.31-32.52,17.53-50.99,17.53-45.77,0-83-37.23-83-83,0-32,18.71-61.49,47.67-75.12l1.82-.86,.72-1.88c6.78-17.79,18.64-33,34.3-43.98,16.01-11.23,34.85-17.16,54.48-17.16s38.47,5.93,54.48,17.16c15.66,10.98,27.52,26.19,34.3,43.98l.72,1.88,1.82,.86c28.96,13.63,47.67,43.12,47.67,75.12,0,45.77-37.23,83-83,83Z"/>
</svg>