<?xml version="1.0" encoding="UTF-8"?>
<svg id="icon" xmlns="http://www.w3.org/2000/svg" viewBox="0 0 400 400">
  <defs>
    <style>
      .cls-1 {
        fill: #509e2f;
      }
    </style>
  </defs>
  <path class="cls-1" d="M317.64,196.71l22.19,22.19,7.07-7.07L200,64.93,53.1,211.82l7.07,7.07,22.19-22.19v126.29h-25.72v10H343.36v-10h-25.72v-126.29Zm-225.28-10l107.64-107.64,107.64,107.64v136.29H92.36V186.71Z"/>
  <path class="cls-1" d="M200,155c-31.43,0-57,25.57-57,57,0,20.31,10.65,38.84,28,49.07v9.86c0,1.87,.36,3.68,1.07,5.36,2.19,5.29,7.29,8.71,13,8.71h29.86c5.71,0,10.81-3.42,12.99-8.68,.72-1.71,1.08-3.52,1.08-5.39v-9.85c17.35-10.26,28-28.79,28-49.08,0-31.43-25.57-57-57-57Zm21.69,98.71l-2.69,1.4v15.82c0,.53-.1,1.04-.31,1.54-.62,1.51-2.14,2.53-3.76,2.53h-29.86c-1.62,0-3.13-1.02-3.77-2.56-.2-.47-.3-.98-.3-1.51v-15.83l-2.69-1.4c-15.61-8.12-25.31-24.1-25.31-41.69,0-25.92,21.08-47,47-47s47,21.08,47,47c0,17.58-9.7,33.56-25.31,41.71Z"/>
  <rect class="cls-1" x="184" y="291" width="32" height="10"/>
</svg>