<?xml version="1.0" encoding="UTF-8"?>
<svg id="icon" xmlns="http://www.w3.org/2000/svg" viewBox="0 0 400 400">
  <defs>
    <style>
      .cls-1 {
        fill: #509e2f;
      }
    </style>
  </defs>
  <path class="cls-1" d="M325.54,221.08c-3.64,5.06-5.92,7.92-10.34,7.92s-6.7-2.86-10.35-7.92c-2.88-4-6.29-8.72-11.85-10.88v-70.12l15.46,15.46,7.07-7.07L200,32.93l-115.54,115.54,7.07,7.07,15.46-15.46v70.12c-5.57,2.16-8.98,6.89-11.86,10.89-3.64,5.06-5.92,7.92-10.34,7.92s-6.7-2.86-10.34-7.92c-3.87-5.38-8.7-12.08-18.46-12.08v10c4.42,0,6.7,2.86,10.34,7.92,3.87,5.38,8.7,12.08,18.46,12.08s14.58-6.7,18.45-12.08c3.64-5.06,5.92-7.92,10.34-7.92s6.7,2.86,10.34,7.92c3.87,5.38,8.7,12.08,18.46,12.08s14.58-6.7,18.46-12.08c3.64-5.06,5.92-7.92,10.34-7.92s6.7,2.86,10.34,7.92c3.87,5.38,8.7,12.08,18.46,12.08s14.58-6.7,18.46-12.08c3.64-5.06,5.92-7.92,10.34-7.92s6.7,2.86,10.34,7.92c3.88,5.38,8.7,12.08,18.46,12.08s14.58-6.7,18.46-12.08c3.64-5.06,5.92-7.92,10.34-7.92s6.7,2.86,10.34,7.92c3.88,5.38,8.7,12.08,18.46,12.08s14.58-6.7,18.46-12.08c3.64-5.06,5.92-7.92,10.34-7.92v-10c-9.76,0-14.58,6.7-18.46,12.08Zm-115.21,0c-3.64,5.06-5.92,7.92-10.34,7.92s-6.7-2.86-10.34-7.92c-2.28-3.17-4.9-6.78-8.64-9.22v-22.86h38v22.84c-3.76,2.45-6.39,6.07-8.67,9.24Zm57.6,0c-3.64,5.06-5.92,7.92-10.34,7.92s-6.7-2.86-10.34-7.92c-3.85-5.34-8.63-11.97-18.25-12.07v-30.01h-58v30.01c-9.63,.09-14.42,6.72-18.27,12.07-3.64,5.06-5.92,7.92-10.34,7.92s-6.7-2.86-10.34-7.92c-3.39-4.71-7.52-10.44-15.05-11.78v-79.22L200,47.07l83,83v79.22c-7.54,1.34-11.67,7.07-15.07,11.79Z"/>
  <path class="cls-1" d="M325.54,261.08c-3.64,5.06-5.92,7.92-10.34,7.92s-6.7-2.86-10.35-7.92c-3.88-5.38-8.7-12.08-18.46-12.08s-14.58,6.7-18.46,12.08c-3.64,5.06-5.92,7.92-10.34,7.92s-6.7-2.86-10.34-7.92c-3.88-5.38-8.7-12.08-18.46-12.08s-14.58,6.7-18.46,12.08c-3.64,5.06-5.92,7.92-10.34,7.92s-6.7-2.86-10.34-7.92c-3.87-5.38-8.7-12.08-18.46-12.08s-14.58,6.7-18.46,12.08c-3.64,5.06-5.92,7.92-10.34,7.92s-6.7-2.86-10.34-7.92c-3.87-5.38-8.7-12.08-18.46-12.08s-14.58,6.7-18.46,12.08c-3.64,5.06-5.92,7.92-10.34,7.92s-6.7-2.86-10.34-7.92c-3.87-5.38-8.7-12.08-18.46-12.08v10c4.42,0,6.7,2.86,10.34,7.92,3.87,5.38,8.7,12.08,18.46,12.08s14.58-6.7,18.45-12.08c3.64-5.06,5.92-7.92,10.34-7.92s6.7,2.86,10.34,7.92c3.87,5.38,8.7,12.08,18.46,12.08s14.58-6.7,18.46-12.08c3.64-5.06,5.92-7.92,10.34-7.92s6.7,2.86,10.34,7.92c3.87,5.38,8.7,12.08,18.46,12.08s14.58-6.7,18.46-12.08c3.64-5.06,5.92-7.92,10.34-7.92s6.7,2.86,10.34,7.92c3.88,5.38,8.7,12.08,18.46,12.08s14.58-6.7,18.46-12.08c3.64-5.06,5.92-7.92,10.34-7.92s6.7,2.86,10.34,7.92c3.88,5.38,8.7,12.08,18.46,12.08s14.58-6.7,18.46-12.08c3.64-5.06,5.92-7.92,10.34-7.92v-10c-9.76,0-14.58,6.7-18.46,12.08Z"/>
  <path class="cls-1" d="M325.54,301.08c-3.64,5.06-5.92,7.92-10.34,7.92s-6.7-2.86-10.35-7.92c-3.88-5.38-8.7-12.08-18.46-12.08s-14.58,6.7-18.46,12.08c-3.64,5.06-5.92,7.92-10.34,7.92s-6.7-2.86-10.34-7.92c-3.88-5.38-8.7-12.08-18.46-12.08s-14.58,6.7-18.46,12.08c-3.64,5.06-5.92,7.92-10.34,7.92s-6.7-2.86-10.34-7.92c-3.87-5.38-8.7-12.08-18.46-12.08s-14.58,6.7-18.46,12.08c-3.64,5.06-5.92,7.92-10.34,7.92s-6.7-2.86-10.34-7.92c-3.87-5.38-8.7-12.08-18.46-12.08s-14.58,6.7-18.46,12.08c-3.64,5.06-5.92,7.92-10.34,7.92s-6.7-2.86-10.34-7.92c-3.87-5.38-8.7-12.08-18.46-12.08v10c4.42,0,6.7,2.86,10.34,7.92,3.87,5.38,8.7,12.08,18.46,12.08s14.58-6.7,18.45-12.08c3.64-5.06,5.92-7.92,10.34-7.92s6.7,2.86,10.34,7.92c3.87,5.38,8.7,12.08,18.46,12.08s14.58-6.7,18.46-12.08c3.64-5.06,5.92-7.92,10.34-7.92s6.7,2.86,10.34,7.92c3.87,5.38,8.7,12.08,18.46,12.08s14.58-6.7,18.46-12.08c3.64-5.06,5.92-7.92,10.34-7.92s6.7,2.86,10.34,7.92c3.88,5.38,8.7,12.08,18.46,12.08s14.58-6.7,18.46-12.08c3.64-5.06,5.92-7.92,10.34-7.92s6.7,2.86,10.34,7.92c3.88,5.38,8.7,12.08,18.46,12.08s14.58-6.7,18.46-12.08c3.64-5.06,5.92-7.92,10.34-7.92v-10c-9.76,0-14.58,6.7-18.46,12.08Z"/>
</svg>