<?xml version="1.0" encoding="UTF-8"?>
<svg id="icon" xmlns="http://www.w3.org/2000/svg" viewBox="0 0 400 400">
  <defs>
    <style>
      .cls-1 {
        fill: #509e2f;
      }
    </style>
  </defs>
  <path class="cls-1" d="M183.55,59.12c3.44-5.95,9.59-9.5,16.46-9.5s13,3.55,16.44,9.5l61.7,106.87-21.12-5.66-2.59,9.66,37.61,10.08,10.08-37.61-9.66-2.59-5.66,21.12-61.7-106.87c-5.24-9.08-14.63-14.5-25.1-14.5s-19.88,5.42-25.12,14.5l-38.23,66.2,8.66,5,38.23-66.2Z"/>
  <path class="cls-1" d="M44.77,315.24c-2.54-5.61-2.22-11.9,.88-17.26l64.16-111.13,5.67,21.16,9.66-2.59-10.08-37.61-37.61,10.08,2.59,9.66,21.08-5.65-64.13,111.09c-4.72,8.19-5.21,17.8-1.33,26.37,4.75,10.57,14.88,17.13,26.45,17.13h76.46v-10H62.1c-7.58,0-14.22-4.3-17.33-11.24Z"/>
  <path class="cls-1" d="M363.02,292.98l-40.67-70.44-8.66,5,40.67,70.44c3.09,5.36,3.41,11.65,.88,17.27-3.12,6.93-9.77,11.23-17.34,11.23h-125.82l15.46-15.46-7.07-7.07-27.54,27.54,27.54,27.54,7.07-7.07-15.46-15.46h125.82c11.56,0,21.7-6.56,26.46-17.12,3.87-8.58,3.38-18.2-1.34-26.38Z"/>
  <path class="cls-1" d="M264.86,205.68l-50.74-16.91,20.56-71.95-99.54,109.5,50.74,16.91-20.56,71.95,99.54-109.5Zm-112,16l60.46-66.5-11.44,40.05,45.26,15.08-60.46,66.5,11.44-40.05-45.26-15.09Z"/>
</svg>