<?xml version="1.0" encoding="UTF-8"?>
<svg id="icon" xmlns="http://www.w3.org/2000/svg" viewBox="0 0 400 400">
  <defs>
    <style>
      .cls-1 {
        fill: #509e2f;
      }
    </style>
  </defs>
  <path class="cls-1" d="M317.64,323v-98.62c10.12-4.54,18.64-12.18,24.23-21.83l.67-1.16v-50.24l-26.89-84.16H84.28l-25.07,83.5-.21,.77v52.79l.84,1.26c5.54,8.33,13.45,15,22.52,19.07v98.62h-25.72v10H343.36v-10h-25.72Zm-6.73-106.65c-4.77,1.76-9.79,2.65-14.91,2.65-23.71,0-43-19.29-43-43v-19h79.54v41.67c-5.04,8.11-12.67,14.37-21.63,17.68Zm-153.91-59.35h86v19c0,23.71-19.29,43-43,43s-43-19.29-43-43v-19ZM91.72,76.99h108.28s108.35,0,108.35,0l22.37,70.01H70.7l21.02-70.01Zm-22.72,123.99v-43.98h78v19c0,23.71-19.29,43-43,43-5.12,0-10.14-.89-14.91-2.65-8-2.96-15.09-8.39-20.09-15.37Zm23.36,26.74c3.8,.85,7.7,1.28,11.64,1.28,21.21,0,39.53-12.52,48-30.56,8.47,18.04,26.79,30.56,48,30.56s39.53-12.52,48-30.56c8.47,18.04,26.79,30.56,48,30.56,3.94,0,7.84-.43,11.64-1.28v95.28h-71.92v-71.68h-71.44v71.68H92.36v-95.28Zm133.36,95.28h-51.44v-61.68h51.44v61.68Z"/>
</svg>