<?xml version="1.0" encoding="UTF-8"?>
<svg id="icon" xmlns="http://www.w3.org/2000/svg" viewBox="0 0 400 400">
  <defs>
    <style>
      .cls-1 {
        fill: #509e2f;
      }
    </style>
  </defs>
  <path class="cls-1" d="M205,251.44v-99.44h-10v99.44c-13.61,2.38-24,14.27-24,28.56,0,15.99,13.01,29,29,29s29-13.01,29-29c0-14.29-10.39-26.18-24-28.56Zm-5,47.56c-10.48,0-19-8.52-19-19s8.52-19,19-19,19,8.52,19,19-8.52,19-19,19Z"/>
  <path class="cls-1" d="M245,218.53V96c0-24.81-20.19-45-45-45s-45,20.19-45,45v122.53c-17.58,13.78-28,35.07-28,57.47,0,40.25,32.75,73,73,73s73-32.75,73-73c0-22.4-10.42-43.69-28-57.47Zm-45,120.47c-34.74,0-63-28.26-63-63,0-20.07,9.7-39.12,25.94-50.94l2.06-1.5V96c0-19.3,15.7-35,35-35s35,15.7,35,35v127.56l2.06,1.5c16.24,11.82,25.94,30.86,25.94,50.94,0,34.74-28.26,63-63,63Z"/>
  <path class="cls-1" d="M302.68,142.73c0-10.88-8.85-19.73-19.73-19.73-8.35,0-15.82,5.29-18.6,13.16l-1.66,4.71,9.43,3.33,1.67-4.71c1.37-3.88,5.05-6.48,9.17-6.48,5.37,0,9.73,4.37,9.73,9.73,0,2.76-1.18,5.41-3.25,7.25-.2,.18-.38,.37-.55,.58l-24.55,30.29c-1.21,1.5-1.46,3.56-.63,5.3,.83,1.74,2.59,2.85,4.51,2.85h34.46v-10h-23.97l17.71-21.85c3.98-3.73,6.26-8.96,6.26-14.42Z"/>
  <path class="cls-1" d="M343.47,157.15c3.98-3.73,6.26-8.96,6.26-14.42,0-10.88-8.85-19.73-19.73-19.73-8.35,0-15.82,5.29-18.6,13.16l-1.66,4.71,9.43,3.33,1.67-4.71c1.37-3.88,5.05-6.48,9.17-6.48,5.37,0,9.73,4.37,9.73,9.73,0,2.76-1.18,5.41-3.25,7.25-.2,.18-.38,.37-.55,.58l-24.55,30.29c-1.21,1.5-1.46,3.56-.63,5.3,.83,1.74,2.59,2.85,4.51,2.85h34.46v-10h-23.97l17.71-21.85Z"/>
</svg>