<?xml version="1.0" encoding="UTF-8"?>
<svg id="icon" xmlns="http://www.w3.org/2000/svg" viewBox="0 0 400 400">
  <defs>
    <style>
      .cls-1 {
        fill: #509e2f;
      }
    </style>
  </defs>
  <path class="cls-1" d="M128.17,311.2c-22-18.34-34.14-44.9-35.1-76.8-.06-1.84-.08-3.7-.08-5.52,0-65.59,88.03-147.08,106.14-163.14,7.62,6.74,27.6,25.02,48.09,48.73,23.73,27.45,52.95,67.93,57.44,104.84l9.93-1.21c-3.85-31.65-23.96-68.71-59.8-110.18-26.45-30.61-52.18-52.43-52.44-52.65l-3.23-2.72-3.23,2.72c-.28,.24-28.43,24.11-56.16,57.01-37.65,44.66-56.74,83.88-56.74,116.59,0,1.93,.03,3.89,.09,5.83,1.05,34.85,14.43,63.96,38.69,84.18,20.81,17.35,48.77,26.86,77.47,26.86,6.46,0,12.95-.48,19.41-1.46l-1.5-9.89c-32.39,4.92-65.65-3.75-88.98-23.19Z"/>
  <path class="cls-1" d="M325.7,338.22l-23.52-23.52c9.1-10.7,14.6-24.55,14.6-39.66,0-33.82-27.51-61.33-61.33-61.33s-61.33,27.51-61.33,61.33,27.51,61.33,61.33,61.33c15.11,0,28.96-5.51,39.66-14.6l23.52,23.52,7.07-7.07Zm-70.25-11.85c-28.3,0-51.33-23.03-51.33-51.33s23.03-51.33,51.33-51.33,51.33,23.03,51.33,51.33-23.03,51.33-51.33,51.33Z"/>
  <path class="cls-1" d="M255.83,232.85l-.76,9.97c17.03,1.3,22.35,11.02,23.85,15.15l9.4-3.42c-4.5-12.38-16.64-20.49-32.48-21.7Z"/>
</svg>