<?xml version="1.0" encoding="utf-8"?>
<!-- Generator: Adobe Illustrator 28.2.0, SVG Export Plug-In . SVG Version: 6.00 Build 0)  -->
<svg version="1.1" id="Layer_1" xmlns="http://www.w3.org/2000/svg" xmlns:xlink="http://www.w3.org/1999/xlink" x="0px" y="0px"
	 viewBox="0 0 2400 600" style="enable-background:new 0 0 2400 600;" xml:space="preserve">
<style type="text/css">
	.st0{clip-path:url(#SVGID_00000080894938288777152460000001511465870359484040_);}
	.st1{fill:#509E2F;}
	.st2{fill:#FFFFFF;filter:url(#Adobe_OpacityMaskFilter);}
	.st3{mask:url(#mask0_1909_675_00000043448500389684348560000011968227267943367300_);}
	.st4{fill:#FFFFFF;}
</style>
<g>
	<defs>
		<rect id="SVGID_1_" width="2400" height="600"/>
	</defs>
	<clipPath id="SVGID_00000092424988494360293430000002138538428643764912_">
		<use xlink:href="#SVGID_1_"  style="overflow:visible;"/>
	</clipPath>
	<g style="clip-path:url(#SVGID_00000092424988494360293430000002138538428643764912_);">
		<path className="st1" d="M1281,13.4c-2.5,1.7-2.7,4.6-1.7,7.1c0.7,0.5,1.3,1,1.8,1.6c-1,1.4-0.3,4.7,1.9,4.5c3.5-0.3,3.6,12.6,8.4,7.5
			c1.3,1.7,4.6,11.5,8,6.9c1,1.6,1.1,3.5,2,5.1c1.1,2.1,2.7,0.9,3.1,3.4c1.7-0.1,4.5,0,5.3-1.9c-0.3,2.5,4.4,11,7.4,9
			c2.6,3.6,2.3,6.9,5.9,1.7c3.2,2.3,5.2,5.8,8.4,6.5c2.1,0.4,4,2.6,6.3,1.7c2.8,1.7,4.4-1.8,6.2-1.6c-0.3,2.6,1.6,9.4,5,9
			c4.8-0.7,0.2,7.5,5.1,6.5c4.5-0.9,1.2,3.1,3.7,3.6c2.9,0.7,6-1.7,6.2-4.5c1,1.5,3.1,9,5.7,8.6c3.9-0.6-1.2,6.9,2.9,7.3
			c5.1,0.6,0.2,14.3,6,11.8c-0.6,2.5-1.1,5.1-2.5,7.3c1.2,0.1,0.8,1.6,0.5,2.2c-0.5,1.2-2.1,3.4-1,4.8c0.2,0.2,3.4,1,3,1.8
			c-2.2,4-11.3,10.6-10.8,14.4c-8.7,4.1-14.9,11.7-22.3,17.7c-3.6,2.9-9.9,4.8-7.8,10c2,4.9,5.4,8.9,8.3,13.3
			c6.1,9.3,3.1,19.4,4.7,29.9c1.5,6,2.7,12.2,4,18.3c0.7,3.4,3.6,8.4,0.8,11.2c-4.2-9.8-5.1-20.9-8.2-31.1c-1.1-3.5-1.7-9.5-6.1-9.8
			c-2.7-0.2-6.4-6.9-8.2-8.9c-6.5-7.1-14-11-23.1-14c-4.3-1.4-9.2-2.3-12.6-5.6c-4.1-3.7,8.1-2.3,8.9-2.2
			c9.9,2.9,20.3,5.7,28.2,12.6c3,1.8,4.2,4.2,7.6,2.1c3.6-2.3-1.8-8.2-3.5-11.4c-2.8-4.9-4.7-6.6-10.6-6.4c-5.7,0.2-11.3,0.9-17,0.9
			c-6.6-0.1-13.1-0.5-19.7-0.1c-1.9-4.5-6.6-1.9-10.6-3.6l0.7-1.5c-2.1-2.1-8.1-2.9-11.6-3.8c1.2-6.6-2.2-4.7-6.4-9.6
			c-0.4-1.5,1.5-1.8,1.7-3c-0.7-2-2.5-3.2-3.4-5c2.5-3-1.5-6.9-1.1-11.1c1.2,2,4.6,0.6,6-0.1c3.4-1.8-0.2-2.9,0.7-5.3
			c1.2-3.3,4.4,1.1,0.8-4.5c-2.5-3.8,1.5-4-0.8-6.9c0.3-1.9-0.4-5.1-1.1-7.3c1.4,1,3.1,0.2,4.7-0.3c4.2-1.3-1.3-4.1,1.9-5.4
			c4.1-0.8-2.8-3.6,0.2-5.6c2.1-1.9-1.2-4.4-1.3-6c1.5-1.4,5.3,1.6,6.2-2c0.1-1.3-0.2-2.4-1-3.5c0.8-0.3,1.5-0.8,2.2-1.4
			c0.7-1-0.9-3.4-0.3-5.1c0.8-2.2-1.4-3.7-1.7-5.8c1.6,1.8,6.4-0.3,3.9-3.3c0.3,0.4-2.2-8.5-2.2-8.9c1.1-0.6,3.2-0.6,4-1.9
			c-0.4-1.1-1.3-1.9-2.1-2.7c2.4-0.8-0.2-4.2-1.1-5.8c-1.6-2.8,3.9-3.1-0.1-5.7c0.4-0.2,0.8,0.2,0.9-0.5c-0.7-2.5-2.3-4.7-4-6.7
			c2.6-2.2,2.6-4-0.1-6.2C1277.6,24,1274.6,12.3,1281,13.4"/>
		<path className="st1" d="M814.8,253.3c-0.1,2.7,0.3,6.1,3,7.3c2.4-0.6,3.6,6.9,7.3,4.6c-1.2,0.7,10.8,9.3,9.4,3
			c3.4,1.4,16.3,20.5,20,8.3c1.8,1.5,2.9,4.9,4.1,6.9l1.2-0.9c-0.4,4.9,5.4,8,8.7,10c5.5,3.4,10.2-6.5,11.5-6.3l4.1,9.8l1-0.9
			c3.8,3.6,1.7,10.2,7.2,11.7c3,0.9,0.3,4.4,5.3,4.1c4.6-0.3,6.2-2.2,9.2-4.1c2.3,4.3,2.5,8.7,5,13.1l1-0.7c0.9,2.1-0.3,4.5,0,6.7
			c0.3,1.7,1.3,2.6,3.2,2.6c-0.5,1.4-0.3,2.8,0.6,4c2.7,1.1,5.6,0.4,8.2-0.5c2.9-1,4.6-3,6.6-3.9c2.9,2.6,0.3,8,2.1,11
			c0.5,0,0.4-1.2,1-0.7c1.2,2.9-2.5,5.8,0,8.5c0.7,0,1-0.9,1.8-0.5c0.2,3.4-3.3,6.5-1.9,10c-3.1-0.2,1.5,4.3,1.3,5.7
			c0.7-0.2,1.3-0.5,1.8-0.9c-1.2,12.6,11.9,5.7,18.3,4c0.8,3.7-1.2,9-2.4,12c0.4,0.7,1.2,0,1.6-0.2c0.2,1.8-1.3,3.8-2,5.7
			c1.2,0.5,1.4-1,2.4-1.1c1.6,3.7-3.5,7.3-1.9,9.2c-1,0.8-1.8,2.5-2.1,3.8c1.4,1.7,2.2,0,3.6-0.5c0.4,2.5-10.2,15-3.6,13.5
			c-0.3,1.1-4.3,6.6-1.1,7.4c4.1,2.5,8.9-0.6,13.1-1.3c0.8,3.5-2.6,6.7-3.2,9.7l1.4-0.1c-0.6,2.3-1.7,4.2-3.4,5.8
			c0.7,1.1,1.4,1.2,2.2,0.4c1.2,0.6-4.8,5.5-3.7,7.2c-0.9,0.5-1.9,0.9-2.3,2.1c0.7,0.5,1.4,0.7,2.2,0.7c-0.7,1.4-14,11.6-7,10.9
			c0.9,2.2-9.4,7.9-10.4,9c-0.3-0.1,3.5,2.4,3.5,2.4c0,4.6-10.1,4.4-12.1,5.7c0.3,0.4,0.7,0.4,0.7,0.9c-1.5,1.1-3.2-0.3-4.9,0.5
			l0.4,1.4c-4.2,1.2-8.5,0.2-12.8,0.9c-4,0.6-7,3.7-10.8,5.2c-6.6,2.7-14.5,3.2-20.2,7.7c-8.4,6.6-2,18,1.5,26
			c2.2,4.9,4.7,9.7,7.4,14.3c1.8,3.1,5.9,6.6,6.8,10.1c-0.3,0.9-3.6,2.4-4.3,2.5c-1.4,0.1-5.4-9.1-6.1-10.5
			c-5.5-10.8-10.2-22.1-13.4-33.9c-9.1-13.8-38.7,1.7-51.2,0.9c0-0.5,1.3-1.1,1.1-2.1c-3.3-1.6-6,2-9.3,1.6l0.4-0.9
			c-1.4-0.4-5.4,0.6-7.2,0.8c-2.7,0.4-5.8-0.9-7.8-2.7c0.9-0.1,1.4-0.7,2-1.4c-1.3-1.4-4.6-2.4-6.4-3l0.1-0.2
			c-2.4-0.7-5.2-0.1-7.3-2c-0.4-1.3,1.5-1.3,1.9-2.4c-2.5-1.7-6.2-1.4-7.8-4.4c0.6-4-3.7-5.2-6.3-9.7c2.5-2.4,8.8-0.4,8.6-5.6
			c-0.5-1.8-2.2-2.7-3.2-4.1l1.3,0c-0.6-2.2-3.6-3-4.5-5.2c0.6-1.2,2.4-0.8,3.2-1.9c-2.1-3.2-8.1-4.8-9.1-8.7
			c0.3-0.9,1.6-0.3,1.9-1.3c-1.9-4.1-8.3-4.6-10.4-8.8c2.5-1.2,2.3-2.6-0.5-4.2c0.8-2.3-2.9-6.1-3.2-9.6c-0.4,0.1,6.8,1.4,5.4,1.3
			c2.5,0,5.9-1.8,7.4-4.4c-2.1-3.7-8.7-5.5-8.6-10.4c0.7-0.1,1.5-0.6,2.2-1c-2.2-2.9-5.5-5-6.8-8.5c1.2-1.7,1.2-2.7-0.9-4.9
			c1.9-0.5-2-5.5-2-7.5c4.7,1.4,10.8,3.9,14.6-0.8c1.2-1.1,1.3-2.3,0.3-3.7c-2.1-3.5,2.1-3.8,4.5-6.4c-0.9-4.1-7.2-1.4-7.6-6.7
			c0.6-0.2,1.6,0.5,1.9-0.5c-1.5-3.3-7.1-12-4.6-16.3c2.2,4.9,16.5,2.6,13.9-2.3c-2.4-4.4,1.6-2.2,2.1-4.8c-0.5-3.3-3.8-5-3.8-8.5
			c0.7-0.4,1.4,0.2,1.8-0.2c0.1-4-2.1-7.4-1.1-11.9c1.2-1.1,14.6,6.8,11-3.8c3.8-3.2,2.8-2.5,0.4-7.7c1.2-1.2,4.2-2.5,1-5.1
			c2.5-1.2-2.5-6.4,0.9-8.1c0.2,4.2,4.5,1.9,6.9,2.7c2,0-0.3-5.6-0.5-6.2c0.7,0.2,2.2,0.4,2.3-0.6c-0.6-1.7-2.4-8.8,0.4-10.1
			c0.2,1.1,1.3,1.7,2.3,1.1c2.5-0.9-0.1-3.4,0.3-5.1l1.4,0.2c0.1-2.9-2.2-6.5,0.4-8.5l0.1,0.4c2.3-1,1.2-8.4,2.4-8.3
			c0,0.2,0,0.5,0.3,0.5c3.8-1.7,1.5-6.4,4.9-8.5L814.8,253.3"/>
		<path className="st1" d="M1800.4,293.9c-4.1,1.5-5.3,5.4-4.8,9.3c0.7,0.9,1.4,1.8,2,2.8c-1.8,1.7-2.1,6.4,1,6.9c5,0.8,0.6,18.6,9,13.3
			c1.3,2.8,2.4,17.5,8.7,12.3c0.9,2.5,0.4,5.2,1,7.8c0.8,3.3,3.3,2.2,3.1,5.7c2.4,0.5,6.2,1.6,7.9-0.9c-1.3,3.3,2.3,16.7,7.2,15
			c2.4,5.8,0.9,10.3,7.5,4.4c3.6,4.3,5.2,9.9,9.4,11.8c2.8,1.3,4.6,5,8.2,4.5c3.3,3.4,6.7-0.9,9.1-0.1c-1.4,3.5-1,13.6,3.8,14.1
			c6.8,0.7-2.3,10.4,4.8,10.8c6.5,0.3,0.5,4.6,3.9,6.3c3.8,2,8.8-0.3,10.1-4.1c0.9,2.3,1.3,13.5,4.9,13.9c5.6,0.5-4,9.1,1.5,11.1
			c6.9,2.5-4.6,19.8,4.3,18.3c-1.7,3.3-3.3,6.7-6,9.3c1.7,0.6,0.6,2.5,0,3.2c-1.1,1.4-4,4-3,6.2c0.2,0.3,4.3,2.5,3.5,3.5
			c-4.4,4.8-19.3,10.8-19.8,16.2c-13.3,2.7-24.6,11.1-36.8,16.9c-6,2.8-15.3,3.2-14.2,11.2c1,7.4,4.4,14.2,6.9,21.2
			c5.3,15-2.3,27.9-3.8,42.9c0,8.9-0.4,17.8-0.7,26.6c-0.2,4.9,2.2,12.8-2.6,15.8c-2.6-15,0.1-30.6-0.8-45.7
			c-0.3-5.2,0.8-13.7-5-15.7c-3.6-1.2-6.5-11.7-8.3-15.1c-6.6-12.1-15.5-20-27.1-27.1c-5.5-3.4-11.9-6.4-15.5-12
			c-4.4-6.5,12-0.5,13,0c12.6,7.3,26,14.8,34.6,27c3.5,3.5,4.4,7.3,9.8,5.5c5.7-1.9,0.4-11.9-1-16.9c-2.1-7.7-4.3-10.7-12.5-12.5
			c-7.9-1.7-15.9-2.6-23.8-4.6c-9-2.3-18-5.1-27.1-6.8c-1.1-6.8-8.5-4.9-13.4-8.6l1.5-1.8c-2.2-3.6-10.2-6.8-14.7-9.3
			c3.9-8.8-1.4-7.2-5.6-15.4c0-2.2,2.6-1.9,3.4-3.6c-0.3-2.9-2.3-5.2-3-8.1c4.5-3.3,0.3-10.1,2.2-15.7c1,3.2,6.2,2.4,8.3,1.9
			c5.3-1.3,0.6-4,2.7-7.1c2.8-4.2,5.7,3,2.6-5.9c-2.1-6,3.5-5,1.2-9.9c1-2.6,1.2-7.2,1-10.4c1.6,1.9,4.2,1.4,6.6,1.2
			c6.2-0.4-0.5-6.2,4.5-6.9c5.9,0.3-2.6-5.9,2.2-7.7c3.6-1.9-0.1-6.5,0.2-8.7c2.6-1.5,6.8,4,9.2-0.7c0.5-1.7,0.5-3.5-0.2-5.2
			c1.2-0.2,2.4-0.6,3.5-1.2c1.3-1.2-0.1-5,1.3-7.2c1.8-2.7-0.7-5.7-0.3-8.6c1.6,3,8.9,1.7,6.6-3.2c0.3,0.6-0.2-12.4,0-13
			c1.7-0.5,4.7,0.3,6.2-1.3c-0.1-1.7-1.2-3-2-4.5c3.6-0.3,1.1-5.9,0.4-8.4c-1.3-4.4,6.4-3,1.9-7.8c0.6-0.2,1.1,0.6,1.5-0.3
			c-0.2-3.7-1.6-7.3-3.2-10.7c4.3-2.1,5-4.7,1.9-8.6C1792.1,307.4,1792,290.2,1800.4,293.9"/>
		<path className="st1" d="M2042.1,334.2c-3.3,1.2-4.3,4.4-3.9,7.5c0.6,0.7,1.1,1.5,1.6,2.2c-1.5,1.3-1.7,5.2,0.9,5.6
			c4.1,0.6,0.5,15.1,7.3,10.8c1,2.3,1.9,14.2,7,10c0.7,2,0.3,4.2,0.8,6.3c0.7,2.7,2.7,1.8,2.5,4.6c1.9,0.4,5,1.3,6.4-0.7
			c-1.1,2.7,1.8,13.6,5.8,12.2c1.9,4.7,0.7,8.3,6.1,3.6c2.9,3.5,4.2,8,7.6,9.6c2.3,1.1,3.7,4.1,6.6,3.6c2.7,2.7,5.4-0.7,7.3-0.1
			c-1.1,2.8-0.8,11,3.1,11.4c5.5,0.6-1.9,8.5,3.9,8.7c5.2,0.2,0.4,3.8,3.2,5.1c3.1,1.6,7.2-0.3,8.2-3.3c0.7,1.9,1,11,4,11.2
			c4.5,0.4-3.2,7.4,1.2,9c5.6,2-3.7,16.1,3.5,14.8c-1.4,2.7-2.7,5.4-4.9,7.5c1.4,0.5,0.4,2,0,2.6c-0.9,1.2-3.3,3.2-2.5,5
			c0.1,0.2,3.5,2.1,2.8,2.8c-3.6,3.9-15.6,8.8-16,13.1c-10.8,2.2-19.9,9-29.8,13.7c-4.8,2.3-12.4,2.6-11.5,9.1
			c0.8,6,3.6,11.5,5.6,17.2c4.3,12.1-1.9,22.6-3,34.8c0,7.2-0.3,14.4-0.5,21.6c-0.2,4,1.8,10.4-2.2,12.8c-2.1-12.1,0.1-24.8-0.6-37
			c-0.2-4.2,0.7-11.1-4.1-12.7c-2.9-1-5.2-9.5-6.8-12.2c-5.4-9.8-12.6-16.2-22-22c-4.5-2.8-9.7-5.2-12.6-9.8
			c-3.6-5.3,9.7-0.4,10.5,0c10.2,5.9,21.1,12,28.1,21.9c2.9,2.8,3.6,5.9,7.9,4.4c4.6-1.6,0.3-9.7-0.8-13.7
			c-1.7-6.2-3.5-8.7-10.1-10.1c-6.4-1.4-12.9-2.1-19.3-3.7c-7.3-1.9-14.6-4.1-22-5.5c-0.9-5.5-6.9-4-10.8-7l1.2-1.5
			c-1.8-2.9-8.3-5.5-11.9-7.5c3.2-7.1-1.1-5.9-4.5-12.5c0-1.8,2.1-1.6,2.8-2.9c-0.2-2.4-1.9-4.3-2.4-6.6c3.7-2.7,0.3-8.2,1.8-12.7
			c0.8,2.6,5,1.9,6.8,1.5c4.3-1.1,0.5-3.3,2.2-5.8c2.3-3.4,4.6,2.4,2.1-4.8c-1.7-4.9,2.8-4,1-8c0.9-2.1,1-5.8,0.8-8.4
			c1.3,1.5,3.4,1.1,5.3,1c5.1-0.3-0.4-5,3.6-5.6c4.8,0.2-2.1-4.8,1.8-6.2c2.9-1.6-0.1-5.2,0.2-7.1c2.1-1.2,5.5,3.3,7.5-0.5
			c0.4-1.4,0.4-2.8-0.1-4.2c1-0.1,1.9-0.4,2.8-1c1-1-0.1-4,1-5.8c1.4-2.2-0.5-4.6-0.2-6.9c1.3,2.4,7.2,1.4,5.3-2.6
			c0.2,0.5-0.1-10.1,0-10.5c1.4-0.4,3.8,0.3,5-1.1c-0.1-1.4-1-2.5-1.6-3.6c2.9-0.2,0.9-4.8,0.3-6.8c-1-3.6,5.2-2.4,1.5-6.4
			c0.5-0.1,0.9,0.5,1.2-0.3c-0.1-3-1.3-5.9-2.6-8.6c3.5-1.7,4-3.8,1.6-7C2035.4,345.2,2035.3,331.2,2042.1,334.2"/>
		<path className="st1" d="M208.2,573.8c4.7-7,8.7-14.4,12.2-22c5.7-12.2,11.6-27.2,8.8-40.9c-0.6-3.1-1.5-6.6-3.3-9.2
			c-0.8-1.1-2.1-1.9-3.3-1.5c-0.7,0.2-1.2,0.8-1.6,1.4c-1.4,2-1.5,5.2-3.4,6.8c-1,0.8-2.4,1-3.5,0.5c-6.6-2.4-4.4-13.3-2.9-18
			c5.6-17.6,2.9-29.7-3.3-24c-6.2,5.7-14.4-14.3-1.2-31c13.2-16.7-11.3-18.8-20.2,3.7c0,0-5.9-10.7-11.3-5.1
			c-5.4,5.6-5.8,13.3-0.2,25.2c5.7,12-2.1,21.6-10.6,11.4c-4.5-5.4-7.4,0.2-7.4,5c0,3.6,1.1,7.2,2.9,10.3c2.7,4.9,7.6,7.2,11.6,10.9
			c3,2.8,5.5,6.3,5.9,10.4c0.5,5.6-2.8,8.2-7.9,5.9c-11.8-5.4-5.8,31.9,31.7,38.2c0.5,0.1,1.3-7,1.3-7.4c0.3-5.4-0.6-10.4-2.1-15.6
			c-3.6-12.5-11.1-23.8-13.9-36.3c-2.3-10.1-0.7-21.1,3.9-30.4c0,0-8.8,17.6,5.9,38.9C212,523.8,217.6,552.2,208.2,573.8
			L208.2,573.8z"/>
		<path className="st1" d="M858.1,453.3c8.5-4.8,16.6-10.5,24.2-16.6c12.3-9.8,26.3-22.2,30.4-37.9c0.9-3.5,1.9-7.6,1.3-11.2
			c-0.2-1.5-1.2-3-2.7-3.3c-0.8-0.1-1.7,0.2-2.4,0.6c-2.5,1.4-4.3,4.6-7.1,5.3c-1.4,0.3-3-0.2-4-1.3c-5.7-5.8,2.3-16,6.3-20.1
			c14.9-15.4,18.5-29.3,9-26.5s-7.6-22.2,14.8-32.7c22.4-10.5-2.1-25.2-23-6.5c0,0-0.6-14.1-9.2-11c-8.6,3.1-13,10.7-13.2,26
			c-0.3,15.3-13.3,21.3-17,6.4c-1.9-7.9-7.9-3.6-10.3,1.4c-1.8,3.7-2.6,8-2.3,12.2c0.3,6.5,4.2,11.3,6.5,17.2
			c1.7,4.4,2.5,9.4,0.8,13.8c-2.4,6-7.2,7.1-11.3,2c-9.5-11.6-22.5,30.1,13.4,55.8c0.5,0.4,5-6.6,5.2-7c3.1-5.5,4.7-11.1,5.8-17.3
			c2.7-14.7,0.7-30.3,4.3-44.7c2.8-11.6,10.2-22.2,19.8-29.4c0,0-18.4,13.7-14,43.4C887.9,403.5,879.1,435.8,858.1,453.3
			L858.1,453.3z"/>
		<path className="st1" d="M1843.3,403.3c6.7-0.4,13.4-1.5,19.9-3c10.5-2.3,22.9-5.8,30.2-14.3c1.6-1.9,3.4-4.1,4.2-6.5
			c0.3-1,0.2-2.2-0.7-2.8c-0.5-0.3-1.1-0.4-1.7-0.4c-1.9,0.1-4,1.6-5.9,1.2c-1-0.2-1.8-1-2.1-2c-1.7-5.3,6.3-9.2,10-10.5
			c13.8-5,20.2-12.5,13.6-13.7c-6.6-1.1,2.1-16,19-15.7c16.9,0.2,6.4-16.2-12.1-10.9c0,0,3.9-8.9-2.3-9.6c-6.2-0.7-11.2,2.7-16,12.1
			c-4.8,9.3-14.7,9.1-12.4-1.1c1.2-5.4-3.7-4.6-6.8-2.2c-2.2,1.8-4,4.2-5.1,6.8c-1.8,4.1-0.9,8.2-1.3,12.6c-0.3,3.2-1.3,6.6-3.7,8.7
			c-3.3,3-6.5,2.2-7.5-2.1c-2.3-10-23,11.8-8.8,38.5c0.2,0.4,5.1-2.6,5.3-2.8c3.6-2.4,6.3-5.4,8.8-8.9c6.2-8.3,9.7-18.5,16.2-26.3
			c5.3-6.3,13-10.6,21.1-12.2c0,0-15.5,3-21.8,22.6C1876.8,381.5,1861.6,398.8,1843.3,403.3L1843.3,403.3z"/>
		<path className="st1" d="M1983.6,357.1c-1.1,1.5-2.3,3.5-1.2,5.2c1.6,0.6-0.7,5.2,2.2,5.4c-0.9-0.1,2.3,9.4,4,5.4
			c1.3,2.1,1,17.8,7.9,12.5c0.4,1.5-0.3,3.9-0.4,5.4l1,0c-2.2,2.6-0.1,6.6,0.9,8.9c1.8,4.1,8.2,0.4,8.9,1.1l-1.6,7.1l0.9-0.1
			c0.7,3.5-3.1,6.3-0.6,9.3c1.3,1.6-1.6,2.6,1.3,4.4c2.7,1.7,4.3,1.2,6.8,1.3c-0.4,3.3-2,5.9-2.4,9.2h0.8c-0.3,1.5-1.9,2.4-2.6,3.7
			c-0.5,1.1-0.3,2,0.7,2.7c-0.9,0.6-1.3,1.4-1.2,2.4c1.1,1.6,3,2.4,4.8,2.9c2,0.6,3.7,0.1,5.2,0.4c0.6,2.5-3,4.5-3.2,6.9
			c0.3,0.2,0.7-0.5,0.8,0c-0.5,2.1-3.7,2.3-3.3,4.7c0.4,0.3,0.9-0.1,1.2,0.4c-1.2,2-4.4,2.3-5,4.8c-1.6-1.3-0.9,3-1.5,3.7
			c0.4,0.2,0.9,0.2,1.4,0.2c-5.6,6.5,4.4,7.8,8.6,9.4c-1,2.4-4.2,4.6-6,5.7c0,0.5,0.7,0.5,1,0.5c-0.6,1.1-2.2,1.6-3.3,2.4
			c0.5,0.7,1.1,0,1.7,0.4c-0.5,2.7-4.8,2.7-4.6,4.4c-0.9,0-2,0.6-2.7,1.3c0.1,1.5,1.2,0.9,2.2,1.1c-0.7,1.6-11.5,4.4-7.3,6.1
			c-0.6,0.5-5,2-3.5,3.6c1.3,3,5.2,3.2,7.8,4.4c-0.9,2.3-4.1,2.7-5.6,4.1l0.8,0.5c-1.2,1-2.6,1.7-4.2,1.9c-0.1,0.9,0.3,1.2,1,1.1
			c0.4,0.8-4.8,1.2-4.8,2.5c-0.7-0.1-1.4-0.3-2.1,0.3c0.2,0.5,0.5,1,1,1.3c-0.9,0.5-12.3,0.9-8.2,3.3c-0.3,1.6-8.3,0.7-9.3,0.9
			c-0.1-0.1,1,2.7,1,2.7c-1.8,2.6-7.3-1.5-8.9-1.6c0,0.3,0.2,0.5,0,0.7c-1.3,0-1.7-1.4-2.9-1.6l-0.3,0.9c-2.8-1-4.8-3.2-7.5-4.5
			c-2.5-1.2-5.3-0.7-8-1.3c-4.7-1.1-9.3-3.9-14.3-3.7c-7.3,0.4-8.2,9.2-9.4,15c-0.7,3.6-1.2,7.2-1.5,10.9c-0.2,2.4,0.7,6-0.2,8.3
			c-0.5,0.4-2.9-0.1-3.4-0.3c-0.8-0.5,0.6-7.1,0.7-8.2c1.2-8.2,3-16.3,5.9-24.1c0.4-11.2-22.1-14.3-28.7-19.6
			c0.2-0.3,1.2-0.1,1.4-0.7c-1.2-2.2-4.1-1.3-5.8-2.8l0.6-0.4c-0.6-0.8-3.2-1.8-4.3-2.4c-1.6-0.9-2.8-2.8-3.2-4.6
			c0.5,0.3,1.1,0.2,1.6,0c-0.2-1.3-1.6-3.1-2.4-4.2l0.2-0.1c-1.1-1.3-2.8-2.1-3.3-4c0.3-0.9,1.3-0.1,2-0.6c-0.7-2-2.8-3.2-2.6-5.5
			c1.9-2,0-4.3,0.3-7.8c2.3-0.4,5.1,3.2,7,0.2c0.4-1.2-0.2-2.4-0.2-3.5l0.7,0.5c0.5-1.4-0.8-3.1-0.5-4.6c0.8-0.4,1.7,0.5,2.5,0.2
			c0.1-2.6-2.6-5.8-1.6-8.5c0.5-0.4,1,0.5,1.6,0c0.5-3-2.8-5.8-2.3-9c1.8,0.3,2.3-0.5,1.3-2.5c1.3-1,0.8-4.5,2-6.6
			c-0.3-0.1,3.2,3.4,2.4,2.9c1.4,1,4,1.3,5.9,0.5c0.3-2.9-2.7-6.5-0.7-9.2c0.4,0.2,1.1,0.2,1.6,0.3c-0.1-2.5-1.1-4.9-0.5-7.4
			c1.3-0.5,1.7-1,1.4-3.1c1.3,0.5,1-3.8,1.8-5c2.1,2.6,4.4,6.4,8.4,5.3c1.1-0.2,1.6-0.8,1.6-1.9c0.2-2.8,2.6-1.3,5-1.8
			c1.1-2.7-3.4-3.6-1.6-6.7c0.4,0.1,0.7,0.9,1.3,0.5c0.5-2.4,0.8-9.5,3.8-10.9c-0.7,3.6,8.2,7.9,8.6,4.1c0.4-3.4,1.7-0.6,3-1.8
			c1-2-0.2-4.3,1.3-6.2c0.5,0,0.7,0.7,1.1,0.6c1.6-2.2,1.8-4.9,4-7.1c1.1-0.1,5.5,9.5,7.6,2.2c3.3-0.3,2.6-0.3,3.2-4.1
			c1.1-0.2,3.3,0.3,2.5-2.4c1.9,0.3,1.2-4.6,3.7-4.1c-1.5,2.4,1.7,2.8,2.8,4.2c1.1,0.8,2-3.2,2.2-3.7c0.3,0.4,1.1,1.1,1.5,0.6
			c0.4-1.2,2.1-5.8,4.2-5.4c-0.3,0.7,0.1,1.5,0.9,1.5c1.8,0.5,1.3-1.9,2.2-2.7l0.7,0.7c1.2-1.5,1.3-4.4,3.5-4.6l-0.1,0.3
			c1.7,0.3,4-4.2,4.6-3.7c0,0.1-0.2,0.3,0,0.4c2.8,0.5,3.4-3,6.1-2.8L1983.6,357.1"/>
		<path className="st1" d="M1411.1,140.4c-0.9,1.3-2,3.1-1,4.5c1.3,0.5-0.6,4.6,1.9,4.7c-0.8-0.1,2,8.2,3.5,4.7
			c1.2,1.8,0.8,15.5,6.8,10.9c0.4,1.3-0.3,3.4-0.4,4.7l0.9,0c-1.9,2.3-0.1,5.7,0.8,7.8c1.5,3.5,7.1,0.3,7.7,0.9l-1.4,6.2l0.8-0.1
			c0.6,3-2.6,5.5-0.5,8.1c1.1,1.4-1.4,2.2,1.1,3.8c2.3,1.4,3.7,1,5.8,1.2c-0.4,2.9-1.8,5.1-2.1,8h0.7c-0.3,1.3-1.7,2.1-2.3,3.3
			c-0.4,0.9-0.2,1.7,0.6,2.3c-0.8,0.5-1.1,1.2-1,2.1c0.9,1.4,2.6,2.1,4.1,2.6c1.7,0.5,3.2,0.1,4.5,0.4c0.5,2.2-2.6,3.9-2.7,6
			c0.2,0.1,0.6-0.5,0.7,0c-0.4,1.8-3.2,2-2.9,4.1c0.3,0.2,0.8-0.1,1,0.4c-1.1,1.7-3.8,2-4.3,4.2c-1.4-1.1-0.7,2.6-1.3,3.2
			c0.4,0.1,0.8,0.2,1.2,0.2c-4.9,5.7,3.8,6.8,7.4,8.2c-0.9,2-3.6,4-5.2,5c0,0.5,0.6,0.4,0.8,0.5c-0.5,0.9-1.9,1.4-2.9,2.1
			c0.4,0.6,1,0,1.5,0.3c-0.5,2.3-4.2,2.3-4,3.8c-0.7,0-1.7,0.6-2.3,1.1c0.1,1.3,1,0.7,1.9,1c-0.6,1.3-10,3.8-6.3,5.3
			c-0.5,0.4-4.3,1.7-3,3.2c1.1,2.6,4.5,2.7,6.7,3.9c-0.8,2-3.5,2.4-4.8,3.6l0.7,0.4c-1.1,0.9-2.3,1.4-3.6,1.6
			c-0.1,0.8,0.2,1.1,0.9,1c0.4,0.7-4.2,1-4.2,2.2c-0.6-0.1-1.2-0.2-1.8,0.2c0.1,0.5,0.4,0.8,0.8,1.1c-0.8,0.4-10.7,0.8-7.1,2.9
			c-0.3,1.4-7.2,0.6-8.1,0.8c-0.1-0.1,0.9,2.4,0.9,2.4c-1.6,2.3-6.4-1.3-7.7-1.4c0,0.3,0.2,0.4,0,0.6c-1.1,0-1.4-1.2-2.5-1.4
			l-0.3,0.8c-2.4-0.9-4.2-2.8-6.4-3.9c-2.2-1.1-4.6-0.6-6.9-1.2c-4.1-1-8-3.4-12.3-3.2c-6.3,0.4-7.1,8-8.1,13.1
			c-0.6,3.1-1,6.3-1.3,9.5c-0.2,2.1,0.6,5.2-0.1,7.2c-0.4,0.3-2.5-0.1-2.9-0.3c-0.7-0.4,0.5-6.2,0.6-7.1c1-7.1,2.6-14.2,5.1-21
			c0.3-9.8-19.2-12.4-24.9-17c0.2-0.2,1-0.1,1.2-0.6c-1-1.9-3.5-1.1-5-2.4l0.5-0.3c-0.5-0.7-2.8-1.6-3.7-2.1c-1.4-0.7-2.5-2.4-2.8-4
			c0.5,0.3,0.9,0.1,1.4,0c-0.2-1.1-1.4-2.7-2-3.6l0.1-0.1c-0.9-1.1-2.5-1.8-2.8-3.5c0.2-0.8,1.1-0.1,1.7-0.5
			c-0.6-1.7-2.5-2.8-2.2-4.8c1.7-1.7,0-3.8,0.3-6.8c2-0.3,4.4,2.8,6,0.2c0.4-1-0.1-2-0.1-3l0.6,0.4c0.5-1.2-0.7-2.7-0.4-4
			c0.7-0.4,1.5,0.4,2.2,0.2c0.1-2.3-2.2-5.1-1.4-7.3c0.4-0.4,0.9,0.4,1.3,0c0.5-2.6-2.4-5-2-7.8c1.6,0.3,2-0.5,1.2-2.2
			c1.2-0.8,0.7-3.9,1.8-5.7c-0.2-0.1,2.8,3,2.1,2.5c1.2,0.9,3.4,1.2,5.1,0.4c0.3-2.5-2.3-5.6-0.6-8c0.4,0.2,0.9,0.2,1.4,0.3
			c-0.1-2.2-1-4.3-0.4-6.4c1.2-0.4,1.5-0.9,1.2-2.7c1.1,0.4,0.9-3.3,1.6-4.3c1.8,2.3,3.8,5.6,7.3,4.6c0.9-0.1,1.4-0.7,1.4-1.7
			c0.2-2.4,2.3-1.1,4.3-1.6c1-2.3-3-3.1-1.4-5.8c0.3,0.1,0.6,0.8,1.1,0.4c0.4-2.1,0.7-8.2,3.3-9.5c-0.6,3.1,7,6.9,7.4,3.6
			c0.4-3,1.5-0.5,2.6-1.6c0.9-1.8-0.1-3.7,1.1-5.4c0.5,0,0.6,0.6,0.9,0.5c1.4-1.9,1.5-4.3,3.5-6.1c0.9-0.1,4.7,8.2,6.6,1.9
			c2.9-0.2,2.2-0.2,2.8-3.6c1-0.2,2.8,0.2,2.2-2.1c1.6,0.3,1-4,3.2-3.6c-1.3,2.1,1.5,2.5,2.4,3.7c0.9,0.7,1.8-2.8,1.9-3.2
			c0.2,0.3,0.9,0.9,1.3,0.5c0.3-1,1.8-5.1,3.6-4.7c-0.3,0.6,0.1,1.3,0.8,1.3c1.5,0.4,1.1-1.7,1.9-2.4l0.6,0.6c1-1.3,1.2-3.9,3.1-4
			l-0.1,0.2c1.5,0.3,3.4-3.6,3.9-3.2c0,0.1-0.2,0.3,0,0.4c2.4,0.5,2.9-2.6,5.3-2.4L1411.1,140.4"/>
		<path className="st1" d="M1387,288.9c-0.7,2.4-1.2,5.5,0.9,7.2c2.3,0,1.6,7,5.4,5.9c-1.2,0.4,7.3,10.8,7.6,4.9
			c2.7,2,9.6,22.2,15.8,12.2c1.3,1.7,1.4,5.1,2,7.1l1.3-0.5c-1.5,4.3,2.9,8.4,5.3,10.9c4.1,4.3,10.6-3.4,11.8-2.8l1.3,9.7l1.1-0.5
			c2.6,4.1-0.9,9.5,3.6,12.2c2.5,1.5-0.8,4,3.7,4.9c4.2,0.9,6.1-0.5,9.2-1.5c1,4.4,0.2,8.4,1.3,12.9l1.1-0.4c0.3,2.1-1.3,4-1.6,6
			c-0.1,1.6,0.6,2.6,2.2,3.1c-0.8,1.1-0.9,2.4-0.4,3.7c2.1,1.6,4.9,1.6,7.4,1.5c2.8-0.2,4.8-1.6,6.8-1.9c1.9,3-1.7,7.2-0.8,10.3
			c0.4,0.1,0.6-1,1.1-0.4c0.4,2.9-3.6,4.6-2,7.6c0.6,0.1,1.1-0.5,1.7,0c-0.6,3.1-4.5,5-4.1,8.4c-2.7-0.9,0.3,4.2-0.2,5.4
			c0.6,0,1.2-0.1,1.8-0.4c-4.1,10.9,9.2,7.9,15.3,7.9c-0.2,3.5-3.2,7.7-5,10.1c0.2,0.7,1.1,0.3,1.4,0.2c-0.3,1.7-2.1,3-3.1,4.6
			c0.9,0.7,1.5-0.5,2.4-0.4c0.6,3.7-4.9,5.6-3.8,7.7c-1.1,0.5-2.2,1.8-2.8,2.9c0.8,1.8,1.9,0.5,3.3,0.4c-0.2,2.3-12.6,10.9-6.4,11.2
			c-0.6,0.9-5.4,4.9-2.8,6.3c3.1,3.2,8.1,1.6,11.9,2c-0.1,3.3-3.9,5.4-5.1,7.9l1.3,0.2c-1.1,1.9-2.5,3.3-4.4,4.4
			c0.3,1.1,0.9,1.4,1.8,0.9c0.9,0.8-5.6,3.8-5,5.5c-0.9,0.2-1.9,0.3-2.5,1.3c0.5,0.6,1.1,1,1.8,1.1c-0.9,1.1-15.2,7-8.8,8
			c0.3,2.2-10.2,4.8-11.4,5.5c-0.2-0.1,2.6,3,2.5,3c-1.1,4.1-10.1,1.5-12.1,2.1c0.2,0.4,0.5,0.5,0.4,0.9c-1.6,0.6-2.8-1-4.4-0.7v1.3
			c-4,0.1-7.7-1.8-11.6-2.2c-3.8-0.4-7.1,1.6-10.8,2.1c-6.5,0.8-13.7-0.6-19.8,2.1c-9,3.9-6.1,15.6-4.8,23.5
			c0.8,4.9,1.9,9.7,3.2,14.5c0.8,3.2,3.7,7.3,3.7,10.6c-0.4,0.7-3.8,1.3-4.4,1.2c-1.3-0.3-2.6-9.3-2.9-10.8
			c-2.3-11-3.8-22.2-3.9-33.4c-4.8-14.5-34.8-7.8-45.7-11.4c0.2-0.5,1.5-0.7,1.5-1.6c-2.5-2.2-5.8,0.3-8.7-0.8l0.5-0.8
			c-1.2-0.7-5-0.8-6.6-1c-2.5-0.3-4.9-2.2-6.3-4.3c0.8,0.2,1.4-0.3,2.1-0.8c-0.9-1.5-3.5-3.2-5-4.2l0.2-0.2c-2-1.2-4.6-1.3-6.1-3.5
			c-0.1-1.3,1.6-0.8,2.2-1.7c-1.8-2.1-5.1-2.8-5.9-5.8c1.5-3.4-2-5.5-3.3-10.1c2.8-1.5,8,1.8,9-3c0-1.7-1.3-2.9-1.8-4.4l1.2,0.3
			c0-2.1-2.4-3.5-2.8-5.7c0.8-0.9,2.4-0.1,3.3-0.9c-1.1-3.4-6-6.2-6-10c0.5-0.8,1.5,0.1,2-0.7c-0.7-4.1-6.3-6-7.1-10.3
			c2.5-0.5,2.6-1.7,0.5-3.8c1.2-1.9-1.2-6.1-0.5-9.4c-0.4,0,5.7,2.8,4.5,2.5c2.2,0.6,5.7-0.2,7.6-2.1c-0.9-3.8-6.5-7-5.1-11.3
			c0.6,0.1,1.5-0.2,2.2-0.4c-1.3-3.1-3.8-5.7-4.1-9.2c1.5-1.2,1.7-2.1,0.4-4.6c1.8,0-0.5-5.4,0-7.2c3.9,2.3,8.7,6.1,13.2,2.8
			c1.3-0.7,1.7-1.8,1.2-3.2c-1-3.6,2.7-2.9,5.5-4.7c0.2-3.9-6-2.9-5.1-7.7c0.5,0,1.3,0.8,1.8,0c-0.5-3.3-3.5-12.4-0.2-15.6
			c0.8,4.9,14.1,6.3,12.9,1.2c-1.1-4.5,1.9-1.5,3-3.8c0.4-3.1-2.2-5.4-1.3-8.5c0.7-0.2,1.2,0.5,1.6,0.2c1-3.5-0.1-7.1,1.8-10.9
			c1.3-0.7,11.4,9.5,10.7-0.8c4.1-1.9,3.1-1.6,2.2-6.7c1.3-0.8,4.3-1.2,2.1-4.3c2.5-0.5-0.7-6.3,2.8-7c-0.8,3.8,3.5,2.8,5.5,4.1
			c1.8,0.5,1.1-5,1.1-5.7c0.5,0.3,1.8,0.8,2.2,0c-0.1-1.7,0-8.4,2.8-8.9c-0.1,1.1,0.8,1.8,1.8,1.5c2.4-0.2,0.7-3,1.5-4.4l1.2,0.5
			c0.8-2.5-0.4-6.3,2.4-7.5v0.4c2.3-0.4,3.1-7.2,4.1-6.8c0,0.2-0.1,0.5,0.1,0.5c3.8-0.6,2.9-5.4,6.4-6.4L1387,288.9"/>
		<path className="st1" d="M417.4,303.9c-0.7,2.4-1.3,5.6,0.9,7.4c2.3,0,1.6,7.2,5.5,6c-1.2,0.4,7.5,11.1,7.8,5.1
			c2.8,2.1,9.8,22.7,16.2,12.5c1.3,1.8,1.5,5.2,2,7.3l1.3-0.6c-1.5,4.4,3,8.6,5.4,11.2c4.2,4.4,10.9-3.5,12-2.9l1.3,10l1.1-0.6
			c2.6,4.2-0.9,9.7,3.7,12.4c2.5,1.5-0.8,4.1,3.8,5c4.3,0.9,6.2-0.5,9.4-1.5c1.1,4.5,0.2,8.6,1.3,13.2l1.1-0.4
			c0.3,2.2-1.3,4.1-1.6,6.1c-0.1,1.6,0.6,2.7,2.3,3.1c-0.9,1.2-1,2.4-0.4,3.8c2.2,1.6,5,1.7,7.6,1.5c2.9-0.2,4.9-1.6,6.9-1.9
			c2,3-1.7,7.3-0.8,10.5c0.5,0.1,0.6-1,1.1-0.4c0.4,3-3.7,4.7-2,7.8c0.6,0.2,1.1-0.5,1.7,0c-0.6,3.2-4.6,5.1-4.1,8.6
			c-2.8-0.9,0.3,4.3-0.2,5.5c0.7,0,1.3-0.1,1.9-0.4c-4.2,11.2,9.4,8.1,15.7,8.1c-0.2,3.5-3.3,7.9-5.1,10.3c0.2,0.7,1.1,0.3,1.5,0.2
			c-0.3,1.7-2.1,3.1-3.2,4.7c0.9,0.7,1.5-0.6,2.4-0.4c0.6,3.7-5,5.8-3.9,7.9c-1.1,0.5-2.3,1.8-2.8,3c0.9,1.9,2,0.6,3.4,0.4
			c-0.2,2.4-12.9,11.2-6.6,11.4c-0.6,0.9-5.5,5-2.8,6.4c3.2,3.3,8.3,1.6,12.2,2c-0.1,3.4-4,5.5-5.2,8.1l1.3,0.2
			c-1.1,1.9-2.6,3.4-4.5,4.5c0.3,1.2,1,1.5,1.9,0.9c0.9,0.8-5.7,3.9-5.1,5.6c-0.9,0.2-2,0.3-2.6,1.3c0.5,0.6,1.1,1,1.9,1.2
			c-1,1.1-15.6,7.1-9,8.2c0.3,2.2-10.5,4.9-11.7,5.6c-0.2-0.1,2.6,3.1,2.6,3c-1.1,4.2-10.3,1.6-12.4,2.2c0.2,0.4,0.6,0.6,0.4,0.9
			c-1.6,0.6-2.8-1-4.5-0.7v1.3c-4.1,0.1-7.8-1.9-11.9-2.3c-3.8-0.4-7.3,1.6-11.1,2.1c-6.7,0.8-14-0.7-20.3,2.1
			c-9.2,4-6.2,16-4.9,24.1c0.8,5,1.9,10,3.2,14.9c0.8,3.3,3.8,7.5,3.8,10.9c-0.5,0.7-3.8,1.3-4.5,1.2c-1.3-0.3-2.7-9.6-3-11
			c-2.4-11.2-3.9-22.7-4-34.2c-4.9-14.8-35.6-7.9-46.8-11.7c0.2-0.5,1.5-0.7,1.5-1.6c-2.6-2.3-6,0.3-8.9-0.8l0.6-0.8
			c-1.2-0.7-5.1-0.8-6.7-1c-2.5-0.3-5-2.2-6.4-4.4c0.9,0.2,1.5-0.3,2.1-0.8c-0.9-1.6-3.6-3.3-5.1-4.3l0.2-0.2
			c-2-1.2-4.7-1.3-6.2-3.6c-0.1-1.3,1.6-0.8,2.3-1.7c-1.9-2.2-5.3-2.8-6-5.9c1.5-3.5-2.1-5.6-3.4-10.3c2.8-1.6,8.1,1.8,9.2-3.1
			c0-1.7-1.3-3-1.9-4.5l1.2,0.3c0-2.1-2.5-3.6-2.8-5.8c0.9-0.9,2.4-0.2,3.4-0.9c-1.1-3.5-6.2-6.3-6.2-10.2c0.5-0.8,1.6,0.1,2-0.7
			c-0.8-4.2-6.4-6.2-7.3-10.6c2.5-0.5,2.7-1.8,0.6-3.9c1.3-1.9-1.2-6.3-0.6-9.6c-0.4,0,5.8,2.9,4.6,2.5c2.3,0.7,5.8-0.2,7.8-2.2
			c-1-3.9-6.6-7.1-5.2-11.6c0.6,0.1,1.5-0.2,2.3-0.4c-1.3-3.2-3.8-5.9-4.1-9.4c1.5-1.2,1.7-2.2,0.4-4.7c1.9,0-0.5-5.5,0-7.4
			c4,2.4,8.9,6.2,13.5,2.8c1.3-0.7,1.7-1.8,1.2-3.3c-1-3.7,2.8-2.9,5.6-4.8c0.2-4-6.2-3-5.3-7.9c0.6,0,1.3,0.9,1.9,0
			c-0.5-3.4-3.5-12.7-0.2-16c0.8,5,14.4,6.4,13.2,1.3c-1.1-4.6,2-1.6,3-3.8c0.4-3.1-2.3-5.5-1.3-8.7c0.7-0.2,1.2,0.6,1.6,0.2
			c1.1-3.6-0.1-7.2,1.9-11.1c1.4-0.7,11.6,9.7,11-0.8c4.2-2,3.2-1.6,2.2-6.9c1.4-0.8,4.4-1.2,2.1-4.4c2.6-0.5-0.7-6.5,2.8-7.1
			c-0.8,3.9,3.6,2.8,5.6,4.2c1.8,0.5,1.1-5.1,1.1-5.8c0.6,0.3,1.9,0.9,2.3,0c-0.1-1.7,0-8.6,2.8-9.1c-0.1,1.1,0.8,1.9,1.9,1.6
			c2.5-0.2,0.7-3.1,1.5-4.5l1.2,0.6c0.8-2.6-0.4-6.4,2.4-7.7v0.4c2.4-0.4,3.2-7.4,4.2-7c0,0.2-0.1,0.5,0.2,0.6
			c3.8-0.6,3-5.5,6.6-6.6L417.4,303.9"/>
		<path className="st1" d="M1112.7,250.7c-1.3,2.4-2.5,5.6-0.6,7.8c2.4,0.5,0.1,7.8,4.5,7.4c-1.3,0.1,5.4,13.1,7,6.9
			c2.4,2.8,5.3,25.7,14.2,16.4c1,2.1,0.4,5.7,0.5,8l1.5-0.3c-2.6,4.2,1.2,9.6,3.3,12.8c3.4,5.5,12.1-1.2,13.1-0.4l-0.8,10.6l1.3-0.3
			c1.8,4.9-3,9.9,1.2,13.7c2.3,2.1-1.7,4.1,2.9,6.1c4.3,1.8,6.6,0.8,10.1,0.5c0.1,4.9-1.7,8.9-1.4,14l1.2-0.2c-0.1,2.3-2.2,3.9-3,6
			c-0.5,1.6,0,2.9,1.7,3.7c-1.1,1-1.5,2.3-1.2,3.8c1.9,2.1,4.8,2.8,7.6,3.2c3,0.4,5.4-0.6,7.6-0.5c1.4,3.6-3.3,7.2-3.1,10.7
			c0.5,0.2,0.9-0.9,1.2-0.2c-0.2,3.2-4.8,4.1-3.8,7.6c0.6,0.3,1.2-0.3,1.8,0.4c-1.3,3.2-5.8,4.3-6.2,8c-2.7-1.5-0.6,4.5-1.4,5.6
			c0.7,0.2,1.4,0.2,2,0c-6.8,10.7,8.1,10.4,14.6,11.8c-1,3.6-5.1,7.5-7.5,9.6c0.1,0.8,1.1,0.6,1.5,0.6c-0.7,1.7-2.9,2.8-4.3,4.2
			c0.8,0.9,1.7-0.3,2.6,0.1c-0.2,4-6.4,4.9-5.8,7.4c-1.2,0.2-2.8,1.4-3.6,2.5c0.5,2.1,1.9,1,3.4,1.1c-0.7,2.4-15.8,8.8-9.3,10.4
			c-0.8,0.8-6.8,4-4.3,6.1c2.6,4.1,8.3,3.4,12.3,4.7c-0.8,3.5-5.3,4.8-7.2,7.2l1.3,0.5c-1.5,1.8-3.4,3-5.7,3.7
			c0.1,1.3,0.7,1.7,1.8,1.4c0.8,1.1-6.7,2.8-6.5,4.8c-1,0-2.1-0.1-3,0.8c0.4,0.8,0.9,1.3,1.7,1.6c-1.2,0.9-17.8,4-11.1,6.6
			c-0.2,2.3-12,2.8-13.3,3.3c-0.2-0.2,2.1,3.8,2,3.7c-2.1,4.2-11-0.6-13.3-0.4c0.1,0.4,0.4,0.7,0.2,1.1c-1.8,0.3-2.7-1.7-4.6-1.7
			l-0.3,1.4c-4.3-0.8-7.7-3.6-11.8-4.9c-3.9-1.3-7.9,0.1-12-0.2c-7.1-0.6-14.4-3.7-21.5-2.2c-10.5,2.2-9.9,15.2-10.3,23.9
			c-0.2,5.4-0.1,10.8,0.2,16.1c0.2,3.6,2.3,8.6,1.6,12.1c-0.6,0.7-4.3,0.5-5,0.2c-1.3-0.6-0.7-10.5-0.7-12.1
			c-0.1-12.2,0.8-24.4,3.2-36.3c-2-16.4-35.3-15.9-46.1-22.2c0.3-0.5,1.7-0.4,1.9-1.4c-2.2-2.9-6.3-1-9-2.7l0.7-0.7
			c-1.1-1-5.1-1.9-6.8-2.5c-2.6-0.9-4.8-3.4-5.7-6c0.9,0.4,1.6,0,2.4-0.4c-0.6-1.8-3-4.2-4.4-5.6l0.2-0.1c-1.9-1.7-4.6-2.4-5.7-5.1
			c0.2-1.4,1.9-0.5,2.7-1.3c-1.5-2.7-4.9-4-5-7.5c2.3-3.3-1-6.3-1.3-11.5c3.3-1,8.1,3.6,10.2-1.2c0.4-1.8-0.7-3.4-1-5l1.2,0.6
			c0.5-2.2-1.8-4.3-1.7-6.6c1.1-0.8,2.6,0.4,3.7-0.2c-0.4-3.9-5.1-7.9-4.2-11.9c0.6-0.7,1.6,0.4,2.3-0.3c0.1-4.5-5.4-7.8-5.3-12.5
			c2.7,0.1,3.2-1.3,1.4-3.9c1.7-1.7,0.1-6.7,1.5-10c-0.4-0.1,5.4,4.3,4.2,3.6c2.3,1.2,6.1,1.1,8.6-0.6c-0.2-4.3-5.3-8.8-3-13.2
			c0.6,0.2,1.6,0.1,2.4,0.1c-0.7-3.6-2.7-6.9-2.3-10.6c1.9-1,2.3-1.9,1.4-4.8c1.9,0.4,0.6-5.8,1.6-7.6c3.6,3.3,7.9,8.3,13.4,5.8
			c1.5-0.4,2.2-1.5,2-3.2c-0.3-4.1,3.5-2.4,6.9-3.7c1-4.1-5.8-4.4-3.8-9.3c0.6,0.1,1.2,1.2,2,0.4c0.2-3.6-0.9-13.9,3.2-16.6
			c-0.2,5.4,13.6,9.8,13.4,4.1c-0.2-5,2.4-1.2,4-3.3c1.1-3.2-1.2-6.2,0.5-9.3c0.8-0.1,1.1,0.8,1.7,0.6c1.9-3.5,1.5-7.5,4.3-11.1
			c1.6-0.4,10,12.6,11.6,1.6c4.8-1.1,3.7-1,3.8-6.7c1.6-0.5,4.8-0.3,3.1-4.1c2.8,0.1,0.7-6.9,4.5-6.8c-1.7,3.8,3.1,3.7,5,5.5
			c1.8,0.9,2.2-5.1,2.4-5.8c0.5,0.4,1.8,1.3,2.4,0.5c0.3-1.8,1.8-8.9,4.9-8.8c-0.3,1.1,0.4,2.1,1.6,2c2.6,0.3,1.4-3.1,2.5-4.4
			l1.1,0.8c1.4-2.5,1-6.8,4.2-7.4l-0.1,0.4c2.6,0.1,4.9-7,5.8-6.3c0,0.2-0.2,0.5,0,0.6c4.1,0.2,4.3-5.1,8.2-5.4L1112.7,250.7"/>
		<path className="st1" d="M1458.2,248.4c-3.6,2.4-3.9,6.5-2.4,10.2c0.9,0.7,1.8,1.4,2.6,2.2c-1.4,2-0.5,6.7,2.7,6.5
			c5-0.5,5.1,17.9,11.9,10.7c1.9,2.5,6.5,16.4,11.4,9.9c1.4,2.2,1.6,5,2.8,7.3c1.6,3,3.8,1.3,4.4,4.8c2.4-0.1,6.4,0.1,7.5-2.8
			c-0.5,3.5,6.2,15.7,10.6,12.8c3.7,5.1,3.3,9.8,8.4,2.5c4.5,3.3,7.5,8.3,11.9,9.2c3.1,0.6,5.6,3.8,9,2.4c4,2.5,6.3-2.5,8.8-2.3
			c-0.5,3.7,2.3,13.4,7,12.8c6.8-1,0.2,10.7,7.2,9.3c6.3-1.3,1.6,4.4,5.3,5.1c4.2,1,8.5-2.4,8.8-6.4c1.4,2.1,4.5,12.8,8.1,12.3
			c5.5-0.8-1.7,9.8,4.1,10.4c7.3,0.8,0.3,20.4,8.5,16.7c-0.8,3.6-1.6,7.3-3.6,10.4c1.8,0.2,1.1,2.3,0.8,3.1c-0.8,1.7-3,4.8-1.5,6.8
			c0.2,0.3,4.8,1.4,4.2,2.5c-3.2,5.7-16.1,15.1-15.3,20.4c-12.3,5.8-21.2,16.7-31.7,25.2c-5.1,4.2-14.1,6.8-11.1,14.3
			c2.8,6.9,7.7,12.7,11.8,18.9c8.7,13.3,4.4,27.6,6.6,42.5c2.1,8.6,3.9,17.4,5.7,26c1,4.8,5.2,11.9,1.2,16
			c-6-13.9-7.2-29.7-11.7-44.2c-1.5-5-2.5-13.5-8.6-14c-3.8-0.3-9.1-9.8-11.7-12.6c-9.3-10.1-19.8-15.7-32.8-19.9
			c-6.2-2-13.1-3.3-17.9-8c-5.8-5.2,11.5-3.3,12.6-3.1c14,4.1,28.8,8.1,40.1,17.9c4.2,2.6,6.1,6,10.8,3c5.1-3.2-2.5-11.7-5-16.2
			c-3.9-7-6.7-9.3-15.1-9.1c-8.1,0.2-16.1,1.3-24.2,1.2c-9.3-0.1-18.7-0.7-28-0.1c-2.7-6.4-9.4-2.7-15-5.2l1-2.1
			c-3-3-11.5-4.2-16.5-5.5c1.7-9.5-3.1-6.7-9.1-13.7c-0.6-2.1,2.1-2.5,2.5-4.3c-1-2.8-3.5-4.5-4.8-7.2c3.6-4.3-2.1-9.9-1.6-15.7
			c1.7,2.9,6.6,0.8,8.5-0.2c4.8-2.6-0.3-4.1,0.9-7.5c1.8-4.7,6.2,1.6,1.1-6.3c-3.5-5.3,2.2-5.7-1.2-9.9c0.4-2.8-0.5-7.2-1.5-10.3
			c1.9,1.4,4.4,0.3,6.6-0.4c6-1.9-1.9-5.9,2.7-7.7c5.8-1.1-4-5.1,0.3-8c3-2.7-1.7-6.2-1.9-8.5c2.2-2,7.6,2.3,8.8-2.9
			c0.1-1.8-0.4-3.5-1.4-5c1.2-0.4,2.2-1.1,3.1-2c1-1.4-1.3-4.8-0.5-7.3c1.1-3.1-2-5.3-2.3-8.2c2.2,2.6,9.1-0.5,5.6-4.7
			c0.4,0.5-3.1-12-3.1-12.6c1.5-0.8,4.6-0.8,5.7-2.8c-0.5-1.6-1.9-2.7-3-3.9c3.4-1.1-0.3-6-1.6-8.2c-2.3-3.9,5.5-4.4-0.1-8.1
			c0.6-0.3,1.2,0.3,1.3-0.7c-1.1-3.6-3.3-6.7-5.6-9.6c3.7-3.1,3.7-5.7-0.2-8.9C1453.3,263.6,1449.1,246.9,1458.2,248.4"/>
		<path className="st1" d="M1206.1,145.9c-4.1,1.5-5.4,5.3-4.9,9.2c0.7,0.9,1.4,1.8,2,2.8c-1.9,1.6-2.2,6.4,1,6.9
			c5,0.8,0.4,18.6,8.8,13.4c1.2,2.9,2.2,17.5,8.5,12.4c0.9,2.5,0.3,5.2,0.9,7.8c0.8,3.3,3.3,2.2,3,5.8c2.4,0.5,6.1,1.7,7.9-0.8
			c-1.3,3.3,2,16.8,7,15.1c2.3,5.9,0.8,10.3,7.5,4.5c3.6,4.4,5.1,9.9,9.2,11.9c2.8,1.4,4.5,5.1,8.1,4.6c3.2,3.4,6.7-0.8,9.1,0
			c-1.4,3.4-1.1,13.6,3.6,14.1c6.8,0.8-2.4,10.4,4.6,10.8c6.5,0.4,0.5,4.6,3.8,6.3c3.8,2,8.8-0.2,10.1-4c0.8,2.4,1.1,13.6,4.7,13.9
			c5.6,0.6-4.1,9,1.3,11.1c6.8,2.6-4.8,19.8,4,18.3c-1.7,3.3-3.4,6.6-6.1,9.2c1.7,0.6,0.5,2.5-0.1,3.2c-1.2,1.4-4.1,3.9-3.1,6.2
			c0.1,0.3,4.3,2.6,3.4,3.5c-4.5,4.7-19.4,10.6-20,15.9c-13.4,2.5-24.7,10.8-37,16.4c-6,2.8-15.4,3-14.3,11
			c0.9,7.4,4.2,14.2,6.6,21.3c5.1,15-2.7,27.8-4.3,42.8c-0.1,8.9-0.6,17.8-1,26.6c-0.2,4.9,2,12.9-2.8,15.7
			c-2.3-15,0.5-30.6-0.2-45.7c-0.2-5.2,1-13.7-4.8-15.7c-3.6-1.3-6.3-11.8-8.1-15.2c-6.5-12.1-15.3-20.2-26.8-27.5
			c-5.5-3.5-11.9-6.5-15.4-12.2c-4.3-6.5,12-0.3,13,0.2c12.5,7.5,25.8,15.1,34.3,27.5c3.5,3.5,4.3,7.4,9.7,5.6
			c5.7-1.9,0.5-11.9-0.8-16.9c-2-7.7-4.2-10.7-12.3-12.6c-7.9-1.8-15.9-2.8-23.8-4.9c-9-2.5-17.9-5.3-27-7.2c-1-6.9-8.4-5-13.3-8.8
			l1.5-1.8c-2.1-3.6-10.1-6.9-14.6-9.5c4-8.7-1.3-7.3-5.4-15.5c0-2.2,2.6-1.9,3.4-3.5c-0.3-3-2.3-5.3-2.9-8.1
			c4.6-3.3,0.5-10.1,2.4-15.6c0.9,3.2,6.2,2.5,8.3,2c5.3-1.3,0.7-4,2.8-7.1c2.9-4.1,5.7,3.1,2.6-5.9c-2-6,3.6-4.9,1.3-9.9
			c1.1-2.6,1.3-7.1,1.1-10.4c1.5,1.9,4.2,1.4,6.5,1.3c6.3-0.3-0.4-6.2,4.6-6.8c5.9,0.4-2.6-6,2.3-7.7c3.6-1.9,0-6.5,0.3-8.7
			c2.6-1.4,6.8,4.1,9.2-0.6c0.6-1.7,0.5-3.5-0.1-5.2c1.2-0.1,2.4-0.5,3.5-1.1c1.3-1.2-0.1-5,1.4-7.2c1.8-2.7-0.6-5.7-0.2-8.6
			c1.5,3,8.9,1.8,6.6-3.1c0.3,0.6,0-12.4,0.2-13c1.7-0.4,4.7,0.4,6.2-1.2c-0.1-1.7-1.1-3.1-1.9-4.5c3.6-0.2,1.2-5.9,0.5-8.4
			c-1.2-4.4,6.4-2.9,2-7.8c0.6-0.1,1.1,0.6,1.5-0.3c-0.1-3.7-1.5-7.3-3-10.7c4.4-2,5.1-4.6,2.1-8.6
			C1197.6,159.4,1197.7,142.1,1206.1,145.9"/>
		<path className="st1" d="M1153.6,96.7c-2,0.2-3.1,1.8-3.3,3.7c0.2,0.5,0.4,1,0.6,1.5c-1,0.5-1.7,2.7-0.3,3.3c2.2,0.9-1.9,8.6,2.6,7.1
			c0.2,1.4-1,8.3,2.5,6.6c0.1,1.2-0.4,2.4-0.4,3.7c0,1.6,1.3,1.4,0.8,3c1,0.5,2.6,1.4,3.7,0.5c-1,1.4-0.9,7.9,1.5,7.7
			c0.4,2.9-0.8,4.8,2.9,2.9c1.1,2.4,1.2,5.1,2.9,6.5c1.1,0.9,1.5,2.8,3.2,3c1.1,1.9,3.2,0.4,4.1,1c-1,1.4-2,6.1,0.1,6.9
			c3,1.1-2.3,4.5,0.9,5.5c2.9,0.9-0.3,2.2,1.1,3.3c1.5,1.3,4.1,0.9,5.1-0.7c0.1,1.2-1,6.3,0.6,6.9c2.5,0.9-2.9,3.7-0.6,5.2
			c2.8,1.9-4.4,8.5-0.2,8.8c-1.1,1.3-2.3,2.7-3.8,3.5c0.7,0.5,0,1.2-0.4,1.5c-0.7,0.5-2.3,1.3-2.1,2.5c0,0.2,1.7,1.7,1.2,2
			c-2.6,1.7-10.1,2.7-10.9,5.1c-6.4-0.3-12.5,2.2-18.8,3.4c-3.1,0.6-7.4-0.3-7.8,3.4c-0.4,3.5,0.4,7,0.7,10.5
			c0.7,7.4-4.3,12.4-6.7,19.1c-1,4-2.3,8.1-3.4,12.1c-0.7,2.2-0.5,6.1-3,6.9c0.6-7.1,3.6-13.9,5-20.9c0.5-2.4,2-6.2-0.5-7.7
			c-1.5-1-1.6-6.1-2-7.9c-1.6-6.3-4.7-10.9-9.2-15.5c-2.1-2.2-4.7-4.3-5.7-7.3c-1.2-3.5,5.5,1.2,5.9,1.5c4.9,4.8,10.2,9.8,12.6,16.4
			c1.2,2,1.2,3.8,3.8,3.6c2.8-0.2,1.6-5.4,1.5-7.8c-0.1-3.8-0.7-5.4-4.2-7.1c-3.4-1.7-7-3-10.3-4.9c-3.8-2.1-7.6-4.4-11.6-6.3
			c0.3-3.2-3.3-3.2-5.1-5.5l0.9-0.7c-0.6-1.9-3.8-4.3-5.6-6c2.8-3.6,0.2-3.5-0.7-7.7c0.2-1,1.4-0.6,2-1.2c0.2-1.4-0.5-2.7-0.4-4
			c2.4-1,1.3-4.6,2.8-6.9c0.1,1.6,2.5,1.8,3.6,1.8c2.6,0,0.8-1.8,2.1-2.9c1.8-1.6,2.2,2,1.9-2.4c-0.3-3,2.2-1.9,1.7-4.4
			c0.8-1.1,1.4-3.1,1.7-4.6c0.5,1,1.8,1.1,2.8,1.3c2.9,0.6,0.5-2.9,2.9-2.6c2.7,0.8-0.5-3,1.9-3.2c1.8-0.5,0.7-3,1.1-4
			c1.4-0.4,2.7,2.6,4.3,0.8c0.4-0.7,0.6-1.5,0.5-2.4c0.6,0.1,1.2,0,1.7-0.1c0.7-0.4,0.5-2.3,1.4-3.1c1.1-1,0.4-2.7,0.9-3.9
			c0.4,1.6,3.9,1.8,3.4-0.7c0,0.3,1.4-5.7,1.5-5.9c0.8,0,2.1,0.7,3,0.1c0.1-0.8-0.2-1.5-0.4-2.3c1.7,0.3,1.2-2.6,1.2-3.8
			c-0.1-2.1,3.3-0.6,1.8-3.4c0.3,0,0.4,0.4,0.7,0c0.4-1.7,0.1-3.5-0.2-5.2c2.2-0.4,2.8-1.5,1.9-3.7
			C1148.2,101.9,1150.2,94,1153.6,96.7"/>
		<path className="st1" d="M1663.6,265.1c3.3,2.2,3.6,6,2.2,9.3c-0.8,0.6-1.6,1.3-2.4,2c1.3,1.9,0.4,6.2-2.4,5.9
			c-4.6-0.4-4.6,16.4-10.9,9.9c-1.8,2.3-6,15.1-10.4,9.1c-1.3,2-1.5,4.6-2.6,6.7c-1.5,2.8-3.5,1.2-4,4.4c-2.2-0.1-5.8,0.1-6.8-2.5
			c0.4,3.2-5.7,14.4-9.7,11.8c-3.4,4.7-3,9-7.7,2.3c-4.2,3.1-6.8,7.6-10.9,8.5c-2.8,0.6-5.2,3.5-8.2,2.2c-3.7,2.3-5.8-2.3-8-2.1
			c0.5,3.4-2.1,12.3-6.5,11.7c-6.2-0.9-0.2,9.8-6.6,8.5c-5.8-1.2-1.5,4-4.9,4.7c-3.8,0.9-7.8-2.2-8.1-5.9
			c-1.3,1.9-4.1,11.8-7.4,11.3c-5.1-0.8,1.6,9-3.7,9.5c-6.7,0.7-0.3,18.7-7.8,15.4c0.8,3.3,1.5,6.7,3.3,9.6c-1.6,0.1-1,2.1-0.7,2.9
			c0.7,1.5,2.7,4.4,1.3,6.2c-0.2,0.2-4.4,1.3-3.9,2.3c2.9,5.2,14.8,13.9,14,18.8c11.3,5.4,19.4,15.3,29,23.2
			c4.7,3.8,13,6.2,10.2,13.1c-2.6,6.4-7.1,11.7-10.8,17.4c-8,12.2-4,25.4-6.1,39.1c-2,7.9-3.6,16-5.2,23.9c-0.9,4.4-4.8,11-1.1,14.7
			c5.5-12.8,6.6-27.3,10.7-40.6c1.4-4.5,2.3-12.4,7.9-12.9c3.5-0.3,8.3-9,10.7-11.6c8.5-9.3,18.2-14.4,30.1-18.2
			c5.7-1.8,12-3,16.5-7.3c5.3-4.8-10.6-3.1-11.6-2.8c-12.8,3.8-26.4,7.5-36.7,16.5c-3.9,2.4-5.5,5.5-9.9,2.8
			c-4.6-3,2.3-10.7,4.6-14.9c3.6-6.4,6.2-8.6,13.8-8.4c7.4,0.2,14.7,1.2,22.2,1.1c8.6-0.1,17.1-0.6,25.7-0.1
			c2.5-5.9,8.6-2.5,13.8-4.8l-0.9-2c2.7-2.7,10.6-3.8,15.1-5c-1.5-8.7,2.8-6.2,8.3-12.5c0.5-2-1.9-2.3-2.2-4
			c0.9-2.6,3.2-4.2,4.4-6.6c-3.3-4,1.9-9.1,1.5-14.5c-1.6,2.7-6,0.8-7.8-0.2c-4.4-2.4,0.3-3.8-0.8-6.9c-1.6-4.4-5.7,1.4-1-5.8
			c3.2-4.9-2-5.2,1.1-9.1c-0.4-2.5,0.5-6.6,1.4-9.5c-1.8,1.3-4,0.3-6.1-0.4c-5.5-1.7,1.8-5.4-2.5-7.1c-5.3-1,3.7-4.7-0.3-7.4
			c-2.8-2.5,1.5-5.7,1.7-7.9c-2-1.9-6.9,2.1-8.1-2.6c-0.1-1.7,0.3-3.2,1.3-4.6c-1.1-0.4-2-1-2.8-1.8c-0.9-1.3,1.2-4.4,0.4-6.7
			c-1-2.8,1.8-4.9,2.2-7.6c-2.1,2.3-8.3-0.4-5.1-4.3c-0.4,0.5,2.9-11,2.9-11.6c-1.4-0.8-4.2-0.8-5.2-2.5c0.5-1.5,1.7-2.4,2.7-3.6
			c-3.2-1,0.3-5.5,1.5-7.6c2.1-3.6-5.1-4.1,0.1-7.4c-0.5-0.3-1.1,0.3-1.2-0.6c1-3.3,3-6.2,5.2-8.8c-3.4-2.8-3.4-5.3,0.2-8.1
			C1668.1,279,1671.9,263.7,1663.6,265.1"/>
		<path className="st1" d="M1169,238.4c-3.3,2.2-3.6,6-2.2,9.3c0.8,0.6,1.6,1.3,2.4,2c-1.3,1.9-0.4,6.2,2.4,5.9
			c4.6-0.4,4.6,16.5,10.9,9.9c1.8,2.3,6,15.1,10.4,9.1c1.3,2,1.5,4.6,2.6,6.7c1.5,2.8,3.5,1.2,4,4.4c2.2-0.1,5.8,0.1,6.8-2.5
			c-0.4,3.2,5.7,14.4,9.7,11.8c3.4,4.7,3,9,7.7,2.3c4.2,3.1,6.8,7.6,10.9,8.5c2.8,0.6,5.2,3.5,8.2,2.2c3.7,2.3,5.8-2.3,8-2.1
			c-0.5,3.4,2.1,12.3,6.5,11.7c6.2-0.9,0.2,9.8,6.6,8.5c5.8-1.2,1.5,4,4.9,4.7c3.8,0.9,7.8-2.2,8.1-5.9c1.3,1.9,4.1,11.8,7.4,11.3
			c5.1-0.8-1.6,9,3.7,9.5c6.7,0.7,0.3,18.7,7.8,15.4c-0.8,3.3-1.5,6.7-3.3,9.6c1.6,0.1,1,2.1,0.7,2.9c-0.7,1.5-2.7,4.4-1.3,6.2
			c0.2,0.2,4.4,1.3,3.9,2.3c-2.9,5.2-14.8,13.9-14,18.8c-11.3,5.4-19.4,15.3-29.1,23.2c-4.7,3.8-12.9,6.2-10.2,13.1
			c2.6,6.4,7.1,11.7,10.8,17.4c8,12.2,4,25.4,6.1,39.1c2,7.9,3.6,16,5.2,23.9c0.9,4.4,4.8,11,1.1,14.7c-5.5-12.8-6.6-27.3-10.7-40.6
			c-1.4-4.5-2.3-12.4-7.9-12.9c-3.5-0.3-8.3-9-10.7-11.6c-8.5-9.3-18.2-14.4-30.1-18.2c-5.7-1.8-12-3.1-16.5-7.3
			c-5.3-4.8,10.6-3.1,11.6-2.8c12.8,3.8,26.4,7.5,36.7,16.5c3.9,2.4,5.5,5.5,9.9,2.8c4.6-3-2.3-10.7-4.6-14.9
			c-3.6-6.4-6.2-8.6-13.8-8.4c-7.4,0.2-14.7,1.2-22.2,1.1c-8.6-0.1-17.1-0.6-25.7-0.1c-2.5-5.9-8.6-2.5-13.8-4.8l0.9-2
			c-2.7-2.7-10.6-3.8-15.1-5c1.5-8.7-2.8-6.2-8.3-12.6c-0.5-2,1.9-2.3,2.2-3.9c-0.9-2.6-3.2-4.2-4.4-6.6c3.3-4-1.9-9.1-1.5-14.5
			c1.6,2.7,6,0.8,7.8-0.2c4.4-2.4-0.3-3.8,0.8-6.9c1.6-4.4,5.7,1.4,1-5.8c-3.2-4.9,2-5.2-1.1-9.1c0.4-2.5-0.5-6.6-1.4-9.5
			c1.8,1.3,4,0.3,6.1-0.4c5.5-1.7-1.8-5.4,2.5-7.1c5.3-1-3.7-4.7,0.3-7.4c2.8-2.5-1.5-5.7-1.7-7.9c2-1.9,6.9,2.1,8.1-2.6
			c0.1-1.7-0.3-3.2-1.3-4.6c1.1-0.4,2-1,2.8-1.8c0.9-1.3-1.2-4.4-0.4-6.7c1-2.8-1.8-4.9-2.1-7.6c2.1,2.4,8.3-0.4,5.1-4.3
			c0.4,0.5-2.9-11.1-2.9-11.6c1.4-0.8,4.2-0.8,5.2-2.5c-0.5-1.5-1.7-2.5-2.7-3.6c3.2-1-0.3-5.5-1.5-7.6c-2.1-3.6,5.1-4-0.1-7.4
			c0.5-0.3,1.1,0.3,1.2-0.6c-1-3.3-3-6.2-5.2-8.8c3.4-2.8,3.4-5.3-0.2-8.1C1164.6,252.3,1160.7,237,1169,238.4"/>
		<path className="st1" d="M984.2,239.5c-4,0.3-6.1,3.4-6.6,6.9c0.4,1,0.8,2,1,3c-2.1,1-3.5,5.1-0.9,6.4c4.2,1.9-4.3,16.6,4.5,14
			c0.4,2.8-2.4,16.1,4.4,13.1c0.1,2.4-1,4.7-1.1,7.1c-0.1,3.1,2.4,2.8,1.3,5.9c2,1,5,3,7.2,1.2c-2,2.6-2.4,15.3,2.4,15.1
			c0.6,5.8-1.9,9.3,5.5,5.8c2,4.7,2.1,10,5.2,12.8c2.1,1.9,2.7,5.6,6,6.1c2,3.8,6.2,0.9,8,2.2c-2.1,2.7-4.4,11.7-0.3,13.4
			c5.8,2.4-4.7,8.6,1.4,10.7c5.6,1.9-0.7,4.2,1.8,6.5c2.8,2.7,7.9,2,9.9-1c0.2,2.3-2.4,12.3,0.7,13.5c4.8,1.9-5.9,7-1.6,10.1
			c5.4,4-9.2,16.3-1,17.2c-2.3,2.5-4.6,5-7.7,6.6c1.3,0.9-0.2,2.3-0.9,2.8c-1.4,1-4.6,2.5-4.3,4.7c0,0.3,3.1,3.4,2.2,4
			c-5.1,3.1-19.8,4.6-21.6,9.2c-12.5-1.1-24.5,3.5-36.8,5.4c-6,1-14.3-1.1-15.4,6.2c-1,6.8,0.2,13.6,0.6,20.4
			c0.8,14.6-9.3,24-14.4,36.8c-2.3,7.8-5,15.6-7.5,23.3c-1.4,4.3-1.4,11.9-6.4,13.2c1.7-13.8,8-26.9,11.2-40.5
			c1.1-4.6,4.3-11.9-0.4-15.1c-2.9-2-2.7-12-3.4-15.4c-2.7-12.3-8.5-21.6-16.8-30.9c-4-4.4-8.8-8.7-10.5-14.6
			c-2.2-6.9,10.7,2.7,11.4,3.4c9.2,9.7,19.1,19.8,23.5,32.7c2.2,4,2,7.6,7.2,7.4c5.5-0.2,3.4-10.4,3.5-15.2c0.1-7.3-1-10.5-7.7-14.2
			c-6.5-3.6-13.4-6.4-19.8-10.2c-7.3-4.4-14.5-9.1-22.1-13c0.8-6.3-6.2-6.5-9.5-11l1.8-1.2c-1-3.7-7.2-8.6-10.5-12
			c5.7-6.7,0.7-6.7-0.9-15.1c0.5-2,2.8-1,3.9-2.3c0.5-2.7-0.7-5.2-0.5-7.9c4.8-1.8,2.9-8.8,6-13.2c0,3.1,4.8,3.7,6.9,3.8
			c5,0.2,1.6-3.4,4.2-5.6c3.6-3,4.2,4.1,3.8-4.5c-0.3-5.9,4.4-3.5,3.6-8.4c1.6-2,2.9-6,3.6-8.9c0.9,2,3.3,2.3,5.5,2.8
			c5.6,1.3,1.2-5.5,5.7-4.9c5.1,1.8-0.8-5.9,4-6.2c3.6-0.8,1.6-5.7,2.5-7.7c2.7-0.6,5,5.3,8.3,1.8c0.9-1.4,1.3-2.9,1.2-4.6
			c1.1,0.2,2.3,0.1,3.4-0.1c1.4-0.7,1.2-4.4,3-6c2.3-1.9,0.9-5.1,2-7.6c0.6,3.1,7.4,3.8,6.6-1.1c0.1,0.6,3.1-11,3.4-11.5
			c1.6,0,4,1.5,5.8,0.4c0.3-1.5-0.2-3-0.5-4.5c3.2,0.7,2.5-4.9,2.5-7.3c0-4.2,6.4-1,3.7-6.4c0.6,0,0.8,0.8,1.4,0.1
			c0.8-3.3,0.5-6.9,0-10.2c4.4-0.7,5.6-2.8,4-7.1C973.4,249.3,977.8,234.1,984.2,239.5"/>
		<path className="st1" d="M984.2,239.5c-4,0.3-6.1,3.4-6.6,6.9c0.4,1,0.8,2,1,3c-2.1,1-3.5,5.1-0.9,6.4c4.2,1.9-4.3,16.6,4.5,14
			c0.4,2.8-2.4,16.1,4.4,13.1c0.1,2.4-1,4.7-1.1,7.1c-0.1,3.1,2.4,2.8,1.3,5.9c2,1,5,3,7.2,1.2c-2,2.6-2.4,15.3,2.4,15.1
			c0.6,5.8-1.9,9.3,5.5,5.8c2,4.7,2.1,10,5.2,12.8c2.1,1.9,2.7,5.6,6,6.1c2,3.8,6.2,0.9,8,2.2c-2.1,2.7-4.4,11.7-0.3,13.4
			c5.8,2.4-4.7,8.6,1.4,10.7c5.6,1.9-0.7,4.2,1.8,6.5c2.8,2.7,7.9,2,9.9-1c0.2,2.3-2.4,12.3,0.7,13.5c4.8,1.9-5.9,7-1.6,10.1
			c5.4,4-9.2,16.3-1,17.2c-2.3,2.5-4.6,5-7.7,6.6c1.3,0.9-0.2,2.3-0.9,2.8c-1.4,1-4.6,2.5-4.3,4.7c0,0.3,3.1,3.4,2.2,4
			c-5.1,3.1-19.8,4.6-21.6,9.2c-12.5-1.1-24.5,3.5-36.8,5.4c-6,1-14.3-1.1-15.4,6.2c-1,6.8,0.2,13.6,0.6,20.4
			c0.8,14.6-9.3,24-14.4,36.8c-2.3,7.8-5,15.6-7.5,23.3c-1.4,4.3-1.4,11.9-6.4,13.2c1.7-13.8,8-26.9,11.2-40.5
			c1.1-4.6,4.3-11.9-0.4-15.1c-2.9-2-2.7-12-3.4-15.4c-2.7-12.3-8.5-21.6-16.8-30.9c-4-4.4-8.8-8.7-10.5-14.6
			c-2.2-6.9,10.7,2.7,11.4,3.4c9.2,9.7,19.1,19.8,23.5,32.7c2.2,4,2,7.6,7.2,7.4c5.5-0.2,3.4-10.4,3.5-15.2c0.1-7.3-1-10.5-7.7-14.2
			c-6.5-3.6-13.4-6.4-19.8-10.2c-7.3-4.4-14.5-9.1-22.1-13c0.8-6.3-6.2-6.5-9.5-11l1.8-1.2c-1-3.7-7.2-8.6-10.5-12
			c5.7-6.7,0.7-6.7-0.9-15.1c0.5-2,2.8-1,3.9-2.3c0.5-2.7-0.7-5.2-0.5-7.9c4.8-1.8,2.9-8.8,6-13.2c0,3.1,4.8,3.7,6.9,3.8
			c5,0.2,1.6-3.4,4.2-5.6c3.6-3,4.2,4.1,3.8-4.5c-0.3-5.9,4.4-3.5,3.6-8.4c1.6-2,2.9-6,3.6-8.9c0.9,2,3.3,2.3,5.5,2.8
			c5.6,1.3,1.2-5.5,5.7-4.9c5.1,1.8-0.8-5.9,4-6.2c3.6-0.8,1.6-5.7,2.5-7.7c2.7-0.6,5,5.3,8.3,1.8c0.9-1.4,1.3-2.9,1.2-4.6
			c1.1,0.2,2.3,0.1,3.4-0.1c1.4-0.7,1.2-4.4,3-6c2.3-1.9,0.9-5.1,2-7.6c0.6,3.1,7.4,3.8,6.6-1.1c0.1,0.6,3.1-11,3.4-11.5
			c1.6,0,4,1.5,5.8,0.4c0.3-1.5-0.2-3-0.5-4.5c3.2,0.7,2.5-4.9,2.5-7.3c0-4.2,6.4-1,3.7-6.4c0.6,0,0.8,0.8,1.4,0.1
			c0.8-3.3,0.5-6.9,0-10.2c4.4-0.7,5.6-2.8,4-7.1C973.4,249.3,977.8,234.1,984.2,239.5"/>
		<path className="st1" d="M2118.8,399c-2.1,0-5.4-1.8-7.1-0.8c-1.3,0.8-5.7-1.6-6.9-0.4c0,0-3,0.6-3.2,0.5c-1.1-1.2-3.4,0.1-4.7,0.3
			c-1.6,0.2-6.9,3.4-8,3c-0.3,0.9-1.7,0.6-2.3,0.4c0.6-0.9,0-3.6-0.2-4.6c-0.3-1.3-1-2-0.9-3.3c0.5-0.6,0.7-5.1,0.6-5.7
			c-0.4-2.1,0.3-4.2-0.2-6.4c-0.5-2.3-1.4-4-2.4-6c-0.5-1.1-1.1-4.5-1.9-5.1c-2.3-1.2-1.1-6.9-0.9-9.2c-1.5,1.3-3,2.9-4.7,3.9
			c-1.3,2-4.6,1.3-6.1,2.8c-2.2,2.1-6.2,2.2-8,4.7c-1,1.4-5.5,6.1-7.1,6c-3.4-0.2-5.9,7.8-6.5,10.1c-0.6,2.2-0.5,5.2-1.6,7.1
			c0.3,1.4-1.7,3.7-1.1,5.4c-2.7,1.9-0.5,10.1-1.2,13.1c-0.5,6.4-0.1,13.8,1.2,20.2c0.8,3.9,1.4,7.7,1.7,11.7
			c0.1,1.1-0.2,9.7-2.5,9.3c-3.1-4.9-2.4-10.6-2.1-16.2c0.4-6.2,0.3-13.3-2.2-19.1c-1.5-3.4-2.1-7.2-2.7-11c-0.8-5-2.9-9.4-4.9-13.7
			c-1.5-1.2-1-3.5-2.5-4.7c-1.8-1.4-2.7-3.6-4.5-5.2c-0.2-1.3-3.3-3.4-4.3-4.2c-1.6-1.2-2.8-2.5-4.5-3.5c-6.2-3.4-14.5-2.8-20.9-7.2
			c0.2,3.1,0.9,5,0.4,8.2c-0.1,0.6-0.5,4.5-0.9,4.9c-2.3,1.5-0.8,6.7-1.6,8.7c-0.3,0.8,0.1,4.8,0.4,5.7c0.8,1.9,0.1,2.8,0.6,4.8
			c0.2,2.7,1.3,7.6,2.8,9.9c2.2,3.5,3.3,6.4,6.5,9.6c2.1,2.1,4.1,4.2,6.7,5.9c1.1,2,4.2,4.8,6.1,6.1c4.9,3.4,10.1,7.2,14.7,11
			c3.9,3.7,10.3,5.7,11.8,11.5c-4.3,1.8-12.2-9.5-16.3-11.2c-2.1-2.3-6.8-3.9-9.6-4.9c-2.5-0.9-6.8-4.4-9.7-3.9
			c-2.9-2.3-9.4-0.6-12.6-0.6c-3.8-0.1-6.7,3-9.2,5.4c-3,2.2-6.2,4.2-9.4,6.4c1,1,2.2,1.7,3.5,2.3c1.2,1.9,2.4,3.3,4,4.9
			c2.8,2.8,6.2,5.1,8.7,8.1c2.8,3.4,9.9,3.6,13.9,5.1c4.2,1.5,12.5,1.8,16.3-0.6c7.6-0.3,13.1-7.1,19.8-9.2c3.4,0.4,1.9,4.7,2.9,6.9
			c1.1,5.4,1,11,0.5,16.5c-0.5,5.1-1.4,10.1-2.3,15.1c-0.9,4.7-3.4,8.5-3.4,13.5c0,3,0.7,2,2.9,2.5c1.7-0.8,0.5-3.2,0.4-4.7
			c-0.4-5.1,1.9-11,2.8-16.1c0.9-5.5,1.6-11,1.8-16.6c0.1-2.8,0.1-5.7-0.1-8.5c-0.1-2-1.3-5.7-0.1-7.5c3.5,0.7,4.8,8.8,6,11.5
			c1.7,3.9,4.4,7.5,6.9,10.9c2.1,2.8,4.4,5.5,7.4,7.4c1.9,1.2,5.2,3.4,7.4,3.3c2.8-0.1,5.8,2.6,8.9,2.3c2-0.2,4.1,0.6,6.2,0.7
			c2.1,0.2,2.5-0.7,4.5-0.5c2.4,0.2,4.8-1.5,7.2-2c2.2-0.4,4.1-1.4,6.2-1.7c1.7-0.3,5-0.3,6.4-1.4c-3.4-0.8-5.4-6.8-6.6-9.6
			c-1.7-3.8-3.8-7.4-7.3-9.9c-7.8-5.6-18.3-8-27.6-9.3c-5.5-0.3-10.9-0.5-16.5-0.5c-1.7,0-9.5-0.2-6.9-3.9
			c2.5-3.6,12.8-3.3,16.9-3.7c5.5-2,11.9-1.4,17.4-4.1c3.8-1.3,7.7-3.1,11.2-5.1c0-0.5,8.2-5.7,9.2-6.1c3.8-4,6.1-9.7,8.9-13.9
			c1-1.5,1.6-3.8,1.9-5c-0.3-1.5,1.5-3.7,1.2-5.4c0-0.3,0.7-2.1,0.8-2.8c0.1-1.3,1.3-2.5,1.1-3.7c-0.4-2.4,1.1-7.5,3-9.1
			C2120.6,398.2,2119.7,398.8,2118.8,399 M2051.9,453.7c-1.1,1-2.4,1.7-3.8,2.1c-1.6-3.1,6.3-9.3,8.1-11
			C2056.1,447.8,2054.1,451.6,2051.9,453.7"/>
		<path className="st1" d="M363.7,434.8c-2.1,0-5.5-1.9-7.3-0.9c-1.4,0.8-5.8-1.7-7-0.4c0,0-3.1,0.6-3.2,0.5c-1.2-1.2-3.5,0.1-4.8,0.3
			c-1.6,0.2-7,3.5-8.2,3.1c-0.4,0.9-1.7,0.6-2.3,0.5c0.6-0.9,0-3.7-0.2-4.7c-0.3-1.3-1-2-0.9-3.3c0.5-0.6,0.7-5.2,0.6-5.9
			c-0.4-2.2,0.3-4.3-0.2-6.5c-0.5-2.4-1.4-4.1-2.5-6.1c-0.5-1.1-1.1-4.6-2-5.2c-2.4-1.2-1.1-7-0.9-9.4c-1.6,1.3-3.1,3-4.8,4
			c-1.3,2-4.7,1.3-6.2,2.9c-2.2,2.2-6.4,2.3-8.2,4.8c-1.1,1.4-5.6,6.2-7.3,6.1c-3.5-0.2-6,8-6.6,10.3c-0.6,2.2-0.5,5.3-1.6,7.2
			c0.4,1.4-1.8,3.7-1.1,5.5c-2.8,2-0.5,10.4-1.2,13.3c-0.5,6.6-0.1,14.1,1.2,20.7c0.8,4,1.4,7.8,1.7,12c0.1,1.1-0.2,9.9-2.6,9.5
			c-3.1-5-2.5-10.8-2.2-16.5c0.4-6.3,0.4-13.6-2.2-19.5c-1.5-3.5-2.1-7.4-2.8-11.2c-0.9-5.1-3-9.6-5-14c-1.5-1.2-1-3.6-2.5-4.8
			c-1.9-1.5-2.7-3.7-4.6-5.3c-0.2-1.3-3.4-3.5-4.4-4.3c-1.6-1.3-2.9-2.6-4.7-3.5c-6.3-3.5-14.8-2.9-21.4-7.3
			c0.2,3.1,0.9,5.2,0.4,8.4c-0.1,0.7-0.5,4.6-0.9,5c-2.4,1.6-0.8,6.8-1.6,8.9c-0.3,0.8,0.1,4.9,0.4,5.8c0.8,1.9,0.1,2.9,0.6,5
			c0.2,2.8,1.4,7.7,2.8,10.1c2.2,3.6,3.4,6.5,6.7,9.8c2.2,2.2,4.2,4.3,6.8,6c1.1,2,4.3,4.9,6.2,6.2c5.1,3.5,10.3,7.3,15,11.2
			c4,3.8,10.5,5.9,12,11.7c-4.4,1.8-12.5-9.7-16.7-11.5c-2.1-2.3-6.9-4-9.8-5c-2.6-0.9-7-4.5-10-4c-2.9-2.4-9.6-0.6-12.8-0.6
			c-3.9-0.1-6.8,3.1-9.4,5.5c-3.1,2.3-6.4,4.2-9.6,6.5c1,1,2.3,1.7,3.6,2.3c1.2,1.9,2.5,3.4,4.1,5c2.8,2.8,6.4,5.2,8.9,8.3
			c2.8,3.4,10.1,3.7,14.2,5.2c4.3,1.6,12.8,1.8,16.7-0.6c7.8-0.3,13.4-7.2,20.3-9.4c3.5,0.4,1.9,4.8,2.9,7c1.1,5.5,1,11.2,0.5,16.8
			c-0.5,5.2-1.4,10.3-2.4,15.5c-0.9,4.8-3.5,8.7-3.5,13.8c0,3,0.7,2,2.9,2.5c1.8-0.9,0.5-3.3,0.4-4.8c-0.4-5.2,2-11.3,2.8-16.4
			c0.9-5.6,1.6-11.3,1.8-17c0.1-2.9,0.1-5.8-0.1-8.7c-0.1-2-1.3-5.8-0.1-7.7c3.6,0.8,4.9,9,6.1,11.7c1.8,4,4.5,7.6,7,11.1
			c2.1,2.9,4.5,5.7,7.6,7.6c1.9,1.2,5.3,3.5,7.5,3.4c2.9-0.1,5.9,2.6,9.1,2.4c2-0.2,4.2,0.6,6.3,0.7c2.1,0.2,2.6-0.7,4.6-0.6
			c2.4,0.2,4.9-1.6,7.3-2c2.2-0.4,4.2-1.4,6.3-1.8c1.8-0.3,5.1-0.3,6.6-1.4c-3.5-0.9-5.5-6.9-6.8-9.8c-1.7-3.9-3.9-7.6-7.5-10.2
			c-8-5.8-18.7-8.2-28.3-9.5c-5.7-0.3-11.2-0.5-16.9-0.6c-1.7,0-9.7-0.2-7.1-4c2.6-3.7,13.1-3.3,17.3-3.8c5.7-2.1,12.1-1.4,17.8-4.1
			c3.9-1.4,7.9-3.2,11.5-5.2c0-0.5,8.4-5.8,9.5-6.3c3.8-4.1,6.3-9.9,9.1-14.2c1-1.5,1.6-3.9,2-5.1c-0.3-1.6,1.5-3.8,1.2-5.5
			c-0.1-0.4,0.7-2.1,0.8-2.8c0.1-1.3,1.3-2.5,1.1-3.8c-0.4-2.4,1.2-7.6,3-9.3C365.6,434,364.7,434.6,363.7,434.8 M295.3,490.8
			c-1.2,1-2.5,1.7-3.9,2.2c-1.7-3.2,6.4-9.5,8.2-11.2C299.5,484.7,297.6,488.5,295.3,490.8z"/>
		<path className="st1" d="M1803.7,366c-2.2,0-5.6-1.9-7.5-0.9c-1.4,0.8-6-1.7-7.2-0.5c0,0-3.1,0.6-3.3,0.5c-1.2-1.2-3.6,0.1-4.9,0.3
			c-1.6,0.3-7.2,3.6-8.4,3.2c-0.4,1-1.8,0.6-2.4,0.5c0.7-0.9,0-3.8-0.2-4.8c-0.3-1.4-1-2.1-0.9-3.5c0.5-0.6,0.7-5.3,0.6-6.1
			c-0.4-2.3,0.3-4.4-0.2-6.7c-0.5-2.5-1.5-4.2-2.5-6.3c-0.5-1.1-1.2-4.7-2-5.4c-2.4-1.2-1.1-7.3-0.9-9.7c-1.6,1.4-3.2,3.1-4.9,4.1
			c-1.3,2.1-4.8,1.4-6.4,2.9c-2.3,2.2-6.5,2.4-8.4,4.9c-1.1,1.5-5.8,6.4-7.4,6.3c-3.6-0.2-6.1,8.2-6.8,10.7
			c-0.6,2.3-0.5,5.5-1.7,7.5c0.4,1.5-1.8,3.9-1.1,5.7c-2.8,2-0.5,10.7-1.3,13.8c-0.5,6.8-0.1,14.6,1.2,21.3
			c0.8,4.2,1.4,8.1,1.7,12.3c0.1,1.1-0.2,10.2-2.6,9.8c-3.2-5.1-2.6-11.2-2.2-17c0.4-6.5,0.4-14-2.2-20.2c-1.5-3.6-2.2-7.6-2.9-11.6
			c-0.9-5.2-3-9.9-5.2-14.5c-1.5-1.3-1-3.7-2.6-5c-1.9-1.5-2.8-3.8-4.7-5.5c-0.2-1.4-3.5-3.6-4.5-4.5c-1.7-1.3-3-2.7-4.8-3.6
			c-6.5-3.6-15.1-3-21.9-7.6c0.2,3.2,0.9,5.3,0.4,8.7c-0.1,0.7-0.6,4.8-0.9,5.2c-2.4,1.6-0.8,7-1.7,9.1c-0.3,0.8,0.1,5.1,0.4,6
			c0.8,2,0.1,3,0.6,5.1c0.2,2.9,1.4,8,2.9,10.4c2.2,3.7,3.5,6.7,6.8,10.1c2.2,2.2,4.3,4.5,7,6.2c1.2,2.1,4.4,5.1,6.4,6.4
			c5.2,3.6,10.5,7.6,15.4,11.6c4.1,3.9,10.8,6.1,12.3,12.1c-4.5,1.9-12.8-10.1-17.1-11.8c-2.2-2.4-7.1-4.2-10-5.2
			c-2.7-0.9-7.1-4.7-10.2-4.1c-3-2.4-9.8-0.6-13.1-0.7c-4-0.1-6.9,3.2-9.6,5.7c-3.2,2.3-6.5,4.4-9.9,6.7c1.1,1,2.4,1.8,3.7,2.4
			c1.2,2,2.5,3.5,4.2,5.2c2.9,2.9,6.5,5.4,9.1,8.6c2.9,3.6,10.4,3.8,14.6,5.3c4.4,1.6,13.1,1.9,17.1-0.7c8-0.3,13.7-7.5,20.7-9.7
			c3.6,0.4,1.9,5,3,7.2c1.1,5.7,1,11.6,0.5,17.4c-0.5,5.3-1.4,10.7-2.4,16c-1,5-3.6,9-3.6,14.2c0,3.1,0.7,2.1,3,2.6
			c1.8-0.9,0.5-3.4,0.4-4.9c-0.4-5.4,2-11.6,2.9-17c1-5.8,1.7-11.6,1.9-17.5c0.1-3,0.1-6-0.1-9c-0.1-2.1-1.3-6-0.1-7.9
			c3.7,0.8,5,9.3,6.2,12.1c1.8,4.1,4.6,7.9,7.2,11.5c2.2,3,4.6,5.8,7.8,7.8c2,1.2,5.4,3.6,7.7,3.5c2.9-0.1,6.1,2.7,9.3,2.4
			c2-0.2,4.3,0.6,6.4,0.8c2.2,0.2,2.6-0.7,4.7-0.6c2.5,0.2,5-1.6,7.5-2.1c2.3-0.5,4.3-1.4,6.5-1.8c1.8-0.3,5.2-0.3,6.7-1.5
			c-3.6-0.9-5.6-7.2-6.9-10.1c-1.8-4-4-7.8-7.7-10.5c-8.2-6-19.1-8.5-28.9-9.8c-5.8-0.3-11.5-0.5-17.3-0.6c-1.8,0-9.9-0.3-7.2-4.2
			c2.6-3.8,13.4-3.4,17.7-3.9c5.8-2.1,12.4-1.5,18.2-4.3c4-1.4,8.1-3.3,11.8-5.4c0-0.5,8.6-6,9.7-6.5c3.9-4.2,6.4-10.2,9.3-14.6
			c1-1.6,1.7-4,2-5.3c-0.3-1.6,1.5-3.9,1.3-5.7c-0.1-0.4,0.7-2.2,0.8-2.9c0.1-1.3,1.4-2.6,1.1-3.9c-0.5-2.5,1.2-7.9,3.1-9.6
			C1805.6,365.2,1804.7,365.8,1803.7,366 M1733.7,423.8c-1.2,1.1-2.5,1.8-4,2.2c-1.7-3.3,6.6-9.8,8.4-11.6
			C1738,417.6,1736.1,421.5,1733.7,423.8"/>
		<path className="st1" d="M1539.1,450.9c11.2-1,20.7,4.5,32.3,1.1c5.4-1.6,10.2-3.9,14-8.1c1.2-1.4,5.7-12.2,6.1-12.3
			c1.3-0.3,5.4,14.8,5.8,16c0.8,2.4,1.5,4.7,2.3,7.1c1.5,4.5-3,1.2-5.3,0.7c-8.3-1.6-17.3,3.1-23.5,8.1c-3.2,2.5-6,5.5-8.1,9
			c-0.9,1.5-10.1,12.6-9.6,13.7c0.3,0.6,25-3.3,27.3-4c5.4-1.7,10.6-4.1,14.3-8.6c1.6-2,4.7-12.5,6.1-13.1
			c-0.3,0.2,10,24.1,8.9,26.8c0.6-1.4-11.7-3.8-13.2-3.5c-6.6,1.1-12.5,5.9-16.6,11c-4.2,5.3-7.3,11.4-9.8,17.6
			c-0.5,1.3-4.6,14.2-4.1,14c3.2-1.1,6.5-6.5,9.5-8.5c4-2.6,8.9-3.7,13.3-5.6c4.9-2.1,10.1-4.6,13.8-8.5c2.9-3.1,4.3-11.6,7.2-13.5
			c0.4-0.3,11.7,36.2,12.3,38.3c1.7,6.3,4.2,13,4.6,19.6c0.3,5.4,5.8,7.8,5,1.4c-0.4-2.9-2.2-5.7-3.1-8.6
			c-4.7-15.1-9.2-30.3-13.5-45.5c-0.4-1.5-2.3-8,1.6-4.6c4.4,4,10.1,5.9,16,6c6.3,0.1,12.5-1.7,18.1-4.3c1.4-0.7,16-6.2,16-6.6
			c0,0-11.3-5.9-12-6.3c-5.9-3.1-12.4-5.5-19.1-6.2c-5.4-0.5-10.6,0-15,3.4c-1,0.8-8.9,9.8-7.5,10.7c-2.4-1.6-8.2-28.2-8.6-28
			c1-0.3,4.5,2.7,5.5,3.1c2.8,1.3,5.8,1.8,8.9,1.8c5.6-0.1,11.1-2,16.1-4.4c5.2-2.5,10-5.7,14.7-9c1.5-1.1,14.3-5.5,10.2-6.1
			c-11.2-1.6-21.5-7.2-33-5.9c-6.1,0.7-12.5,3.1-16.9,7.4c-2.3,2.3-3.4,8.8-5.5,10.2c0.2-0.1-11.3-23.5-9.6-26.8
			c0.2-0.4,10.6,4,12.1,4.2c6,0.8,11.9-1.3,16.7-4.8c5.4-3.9,9.3-9,13.5-14.1c3.4-4.1,8.5-7.3,11.7-11.3c1.1-1.4-10.1-1.4-10.5-1.3
			c-6.3,0.3-12.6,1.2-18.7,2.7c-6.4,1.6-12.1,4.5-16.7,9.3c-2.2,2.3-5.9,11.6-8.4,12.6c-1.7,0.7-6.8-14.9-7.3-16.2
			c-0.9-2.4-1.8-4.9-2.8-7.3c-1.5-3.8,6.7,0.6,8.5,0.8c9.1,0.8,16.8-5.8,23-11.5c3.3-3.1,6.6-6.3,9.5-9.7c1.7-2,8.9-8,9.1-9.8
			c0.1-0.6-25,2.6-27.1,3.1c-5.7,1.4-12.5,3-16.7,7.3c-2,2-3.5,4.4-4.6,7c-0.9,2.2-0.9,7.3-2.3,8.9c0.5-0.5-11.8-21.1-9-22.3
			c1.3-0.6,6.4,2.1,8.7,1.6c5.8-1.3,10.2-6.5,13.4-11.1c3.4-4.8,5.7-10.2,7.8-15.6c0.9-2.5,6.5-14.4,5.5-16.7
			c-0.4-1-23.1,15.6-24.8,17c-4.1,3.4-8.5,6.9-10.4,12c-0.3,0.9-0.7,10.5-1.3,10.6c-1.4,0.4-4.7-9.7-4.7-11.2
			c0.1-2.9,2.5-6.1,2.9-9.2c0.6-4,0.4-8.2-0.8-12.1c-2-7-6.7-11.9-12.5-16c-2.7-2-5.8-3.7-8.2-6.2c-1.1-1.1-2.6-4.8-3.9-5.5
			c-0.2-0.1-1.3,13.5-1.3,14.8c-0.2,8.1,1.3,16,5.4,23.1c2.6,4.5,6.3,8.4,11.3,10.3c2.5,1,4.3,1,5.6,3.7c0.5,0.9,2.9,8.5,2.9,8.5
			c-2.8-1.2-4.8-4.2-7.7-5.6c-4.3-2-9-2.3-13.6-1.1c-5,1.3-10.1,2.4-15.3,2.4c-1.7,0-11.6-0.5-11.2,0.1c1,1.9,7.3,4.7,9.1,6.2
			c4.4,3.7,8.2,7.8,13.8,9.7c4.9,1.7,10.4,2.2,15.4,1.1c2.5-0.5,5-1.5,6.8-3.3c1-0.9,3.2-6.3,4.2-6.1c1.2,0.2,9.3,21,8.3,21.9
			c0.2-0.2-10.5-5.7-11.6-6c-6.9-1.9-13.1-0.4-19.7,1.9c-5,1.8-10,3.9-14.8,6.4c-4,2.1-8.9,3.3-12.6,5.4c-1.1,0.6,7.6,4.6,8.1,4.8
			c6.2,2.5,12.8,4.3,19.5,5.1c6.8,0.8,13.9,0.4,20.3-2.2c3.1-1.3,6.2-3.1,8.3-5.7c0.6-0.8,3.1-7.1,3.6-6.9c2.5,1.1,10.3,22.2,9,24.9
			c0.2-0.4-9.7-2.5-10.5-2.6c-5.9-0.2-11.5,1.3-16.7,4c-3.2,1.6-25,21.3-25.6,21C1538.2,450.8,1538.7,450.8,1539.1,450.9"/>
		<path className="st1" d="M2226.9,477.9c-9.4-1.7-17.8,2.3-27.3-1.5c-4.4-1.8-8.3-4.1-11.2-7.9c-0.9-1.2-3.9-10.8-4.2-10.9
			c-1.1-0.4-5.7,12.2-6.1,13.2c-0.8,2-1.6,3.9-2.4,5.9c-1.6,3.8,2.5,1.2,4.4,1c7.1-0.7,14.3,3.9,19.2,8.7c2.5,2.4,4.6,5.2,6.1,8.3
			c0.7,1.4,7.6,11.5,7.1,12.4c-0.3,0.5-20.9-4.7-22.7-5.4c-4.5-1.8-8.7-4.3-11.4-8.4c-1.2-1.8-3-11-4.1-11.6
			c0.3,0.2-10.3,19.8-9.6,22.1c-0.4-1.2,10.1-2.4,11.4-2c5.5,1.5,10.1,5.9,13.2,10.6c3.1,4.8,5.3,10.2,7,15.7
			c0.4,1.1,2.8,12.5,2.4,12.2c-2.6-1.2-5-6-7.4-8c-3.1-2.5-7.2-3.8-10.8-5.8c-4-2.2-8.2-4.6-11-8.3c-2.2-2.9-2.8-10.2-5.1-12.1
			c-0.3-0.3-12.6,30-13.3,31.7c-1.9,5.2-4.5,10.8-5.3,16.3c-0.7,4.5-5.5,6.2-4.3,0.8c0.5-2.4,2.3-4.7,3.3-7.1
			c5.1-12.5,10.1-25.1,14.8-37.8c0.5-1.3,2.5-6.7-1-4c-4,3-9,4.3-14,3.9c-5.3-0.4-10.4-2.4-15-5.1c-1.1-0.7-13-6.5-13-6.8
			c0,0,10-4.2,10.6-4.4c5.2-2.2,10.9-3.8,16.6-3.9c4.6,0,8.9,0.8,12.4,4c0.8,0.7,6.7,9,5.5,9.7c2.2-1.2,9.1-23.4,9.3-23.2
			c-0.8-0.4-4,1.9-4.9,2.2c-2.4,0.9-5.1,1.1-7.7,0.9c-4.8-0.5-9.2-2.5-13.3-5c-4.2-2.5-8-5.6-11.7-8.7c-1.2-1-11.7-5.8-8.2-6
			c9.6-0.5,18.7-4.5,28.3-2.6c5.1,1,10.3,3.6,13.7,7.6c1.8,2.1,2.2,7.8,3.9,9.1c-0.2-0.1,11.3-19.1,10.1-22.1
			c-0.1-0.3-9.2,2.6-10.5,2.6c-5.2,0.3-9.9-2-13.8-5.4c-4.3-3.7-7.2-8.4-10.3-13c-2.6-3.8-6.6-6.9-9-10.5c-0.8-1.2,8.6-0.4,9-0.3
			c5.3,0.8,10.5,1.9,15.5,3.7c5.3,1.9,9.9,4.7,13.4,9.1c1.7,2.1,4.1,10.4,6.1,11.4c1.4,0.7,6.9-12.2,7.4-13.3c1-2,1.9-4,2.9-6
			c1.6-3.1-5.7,0-7.2,0c-7.7,0-13.7-6.2-18.6-11.5c-2.6-2.8-5.1-5.9-7.3-9c-1.3-1.8-6.9-7.5-6.9-9.1c0-0.5,20.9,4.1,22.6,4.7
			c4.7,1.6,10.3,3.5,13.5,7.5c1.5,1.9,2.6,4,3.4,6.3c0.6,1.9,0.2,6.3,1.3,7.7c-0.3-0.5,11.5-17.1,9.2-18.4c-1.1-0.6-5.6,1.3-7.5,0.7
			c-4.8-1.6-8.1-6.3-10.4-10.4c-2.5-4.3-4.1-9.1-5.4-13.9c-0.6-2.2-4.4-12.8-3.4-14.6c0.4-0.8,18.3,15,19.6,16.3
			c3.2,3.2,6.7,6.5,7.9,11c0.2,0.8-0.2,9,0.3,9.2c1.2,0.4,4.7-7.9,4.8-9.1c0.2-2.5-1.6-5.4-1.8-8c-0.2-3.5,0.3-7,1.5-10.2
			c2.2-5.8,6.6-9.6,11.8-12.7c2.5-1.5,5.2-2.7,7.4-4.6c1-0.8,2.6-3.9,3.7-4.4c0.1-0.1,0.1,11.6,0,12.7c-0.4,6.9-2.3,13.6-6.3,19.3
			c-2.5,3.6-6,6.7-10.3,7.9c-2.2,0.6-3.7,0.5-5,2.7c-0.5,0.7-3.1,7-3.1,7c2.4-0.8,4.4-3.3,6.9-4.2c3.8-1.4,7.8-1.3,11.6,0.1
			c4.1,1.5,8.4,2.8,12.8,3.2c1.4,0.1,9.8,0.4,9.5,0.9c-1,1.5-6.5,3.5-8.1,4.6c-4,2.8-7.5,6-12.4,7.2c-4.2,1.1-8.9,1.1-13.1-0.2
			c-2.1-0.6-4.1-1.7-5.5-3.3c-0.8-0.9-2.2-5.6-3.1-5.5c-1.1,0.1-9.4,17.2-8.6,18c-0.2-0.2,9.3-4.1,10.2-4.2
			c5.9-1.1,11.1,0.6,16.4,3.1c4.1,1.9,8.2,4.1,12,6.6c3.2,2.1,7.3,3.5,10.3,5.6c0.9,0.6-6.8,3.3-7.2,3.5c-5.4,1.6-11.1,2.7-16.8,2.9
			c-5.8,0.2-11.8-0.7-16.9-3.4c-2.5-1.3-5-3.1-6.6-5.5c-0.5-0.7-2.1-6.3-2.5-6.1c-2.2,0.8-10.4,18.1-9.5,20.5
			c-0.1-0.3,8.4-1.4,9.1-1.4c5,0.3,9.6,1.9,13.8,4.6c2.6,1.6,19.5,20,20,19.8C2227.7,478,2227.3,477.9,2226.9,477.9"/>
		<path className="st1" d="M802.2,398.4c-9,6.6-13.4,0.6-11.8-6.1c1.6-6.7,13.7-8,16-17.6c2.2-9.6-10.7-16.3-18.4-7.8
			c-7.7,8.5-9.8,7.5-9,1.9c0.8-5.6,6.4-8.6,3.8-12.7c-2.6-4.1-5.2-0.6-10-0.4c-4.7,0.2-3-4.4-7.1-7.1c-4.1-2.7-6.7-2.3-6.7-2.3
			s-2.6,0.4-5.6,4.3s0.1,7.7-4.4,9.1c-4.5,1.3-8.2-1.1-9.3,3.7c-1.1,4.7,5.1,5.7,7.7,10.8c2.5,5,0.9,6.6-9.1,1.2
			c-10-5.5-20.1,5.1-14.9,13.5c5.2,8.4,17.1,5.6,20.7,11.4c3.6,5.8,1.4,13-9.3,9.7c-10.6-3.3-23,8.1-13.6,18.9
			c9.4,10.9,27.1,1.5,34.2,7.6c7.1,6.2-0.8,10.7-6.6,10.6c-5.8-0.1-12.7,8.9-1.7,15.4c11,6.5,12.5,1.7,16.8,13
			c3.2,8.3,11.1,7.9,15,7.1l2.3,17.8c0.2,1.8,1.8,3,3.6,2.7c1.7-0.3,2.9-2,2.5-3.7l-8-39.9c0,0,0,0,0,0l-0.3-1.3c0,0,0-0.1,0-0.1
			l-0.6-3c0-0.2-0.1-0.4-0.1-0.6l-1.4-7.1c0,0,0,0,0-0.1l-0.2-1.1c0-0.1,0-0.2-0.1-0.4l-1.3-6.7c-0.1-0.3-0.1-0.7-0.2-1l-0.2-0.9
			c-0.1-0.5-0.2-1-0.3-1.4l-1-4.9c0-0.1-0.1-0.3-0.1-0.4l-0.3-1.3c-0.2-1-0.4-1.9-0.6-2.8l-0.1-0.8c-0.1-0.7-0.3-1.3-0.4-2l-0.3-1.4
			c0-0.1-0.1-0.3-0.1-0.5l-0.2-1c0-0.1,0-0.2-0.1-0.3l-0.2-1.1c0,0,0,0,0,0l-0.4-2.1c0-0.2-0.1-0.4-0.1-0.5l-0.1-0.7
			c0-0.2-0.1-0.3-0.1-0.5l-0.1-0.7c0-0.1,0-0.2,0-0.2l-0.1-0.3c0,0,0-0.1,0-0.1l0,0c0,0,0,0,0-0.1l0,0l0,0l17.9,66.4
			c3.6-1.4,7.3-4.4,7.6-10.6c0.5-12.2,3.4-8.1,11.7-17.8s-1.1-16.1-6.5-14c-5.4,2.1-14.3,0.4-9.6-7.8c4.8-8.2,24.5-5.1,29.9-18.5
			C826.5,398.5,811.2,391.8,802.2,398.4L802.2,398.4z"/>
		<path className="st1" d="M1068.4,272.8c-6.6,2.3-8.1-2.1-6-5.8c2.1-3.7,9.6-2.3,12.7-7.6c3.1-5.3-3.4-11.7-9.6-8
			c-6.2,3.7-7.2,2.7-5.7-0.5c1.5-3.2,5.4-4,4.6-6.9c-0.8-2.9-3-1.3-5.9-2c-2.9-0.7-1-3.2-2.9-5.5c-1.9-2.4-3.6-2.6-3.6-2.6
			s-1.6-0.2-4.1,1.6c-2.5,1.8-1.3,4.6-4.3,4.6c-3,0-4.7-2.1-6.2,0.5s2,4.4,2.6,7.8c0.6,3.5-0.7,4.1-5.7-1c-5-5.1-12.9-0.6-11.4,5.3
			c1.6,5.9,9.2,6.5,10.3,10.6c1.1,4.1-1.5,8-7.3,4.1c-5.7-3.9-15.2,0.6-11.6,8.8c3.6,8.2,15.9,5.8,19,10.8c3.1,5-2.4,6.3-5.8,5.1
			c-3.4-1.1-9.2,3-3.8,8.9c5.4,5.8,7.1,3.3,7.6,10.8c0.4,5.5,5.2,6.7,7.7,7l-1.9,11c-0.2,1.1,0.6,2.1,1.7,2.2
			c1.1,0.1,2.1-0.7,2.2-1.8l2.5-25.2c0,0,0,0,0,0l0.1-0.9c0,0,0,0,0-0.1l0.2-1.9c0-0.1,0-0.2,0-0.4l0.4-4.5c0,0,0,0,0,0l0.1-0.7
			c0-0.1,0-0.2,0-0.2l0.4-4.2c0-0.2,0-0.4,0.1-0.6l0.1-0.6c0-0.3,0.1-0.6,0.1-0.9l0.3-3.1c0-0.1,0-0.2,0-0.3l0.1-0.8
			c0.1-0.6,0.1-1.2,0.2-1.8l0.1-0.5c0-0.4,0.1-0.8,0.1-1.2l0.1-0.9c0-0.1,0-0.2,0-0.3l0.1-0.6c0-0.1,0-0.1,0-0.2l0.1-0.7
			c0,0,0,0,0,0l0.1-1.3c0-0.1,0-0.2,0-0.3l0-0.4c0-0.1,0-0.2,0-0.3l0-0.4c0-0.1,0-0.1,0-0.2l0-0.2c0,0,0,0,0-0.1l0,0c0,0,0,0,0,0v0
			v0l-1.3,42.9c2.4-0.2,5.2-1.3,6.4-4.9c2.5-7.2,3.5-4.2,10.2-8.5c6.7-4.3,2.2-9.8-1.4-9.5c-3.6,0.2-8.6-2.4-4.3-6.4
			c4.3-4,15.5,1.4,21.2-5.6C1082.9,277.2,1075,270.5,1068.4,272.8L1068.4,272.8z"/>
		<path className="st1" d="M698.5,362c-0.5,1.8-0.8,4.1,0.8,5.3c1.7,0,1.3,5.2,4.1,4.2c-0.9,0.3,5.7,7.9,5.8,3.5
			c2.1,1.5,7.6,16.3,12.1,8.7c1,1.3,1.2,3.8,1.6,5.3l1-0.4c-1,3.2,2.4,6.2,4.2,8c3.2,3.1,7.8-2.8,8.7-2.4l1.2,7.2l0.8-0.4
			c2,3-0.5,7.1,3,9c1.9,1-0.5,3,2.9,3.6c3.1,0.6,4.5-0.5,6.8-1.3c0.9,3.2,0.3,6.2,1.2,9.6l0.8-0.3c0.3,1.6-0.9,3-1.1,4.5
			c-0.1,1.2,0.5,1.9,1.7,2.2c-0.6,0.9-0.7,1.8-0.2,2.7c1.6,1.1,3.7,1.1,5.6,1c2.1-0.2,3.5-1.3,5-1.6c1.5,2.2-1.1,5.4-0.3,7.7
			c0.3,0.1,0.4-0.8,0.8-0.3c0.4,2.1-2.6,3.5-1.3,5.7c0.5,0.1,0.8-0.4,1.2,0c-0.4,2.3-3.2,3.8-2.8,6.4c-2-0.6,0.3,3.1,0,4
			c0.5,0,0.9-0.1,1.4-0.3c-2.8,8.2,7,5.7,11.6,5.5c-0.1,2.6-2.2,5.8-3.5,7.6c0.2,0.5,0.8,0.2,1.1,0.1c-0.2,1.3-1.5,2.3-2.2,3.5
			c0.7,0.5,1.1-0.4,1.8-0.3c0.5,2.7-3.5,4.3-2.7,5.9c-0.8,0.4-1.6,1.4-2,2.2c0.7,1.3,1.4,0.4,2.5,0.2c-0.1,1.7-9.2,8.4-4.5,8.5
			c-0.4,0.7-3.9,3.8-1.9,4.7c2.4,2.3,6.1,1,9,1.2c0,2.5-2.8,4.1-3.6,6l1,0.1c-0.8,1.4-1.8,2.5-3.2,3.4c0.3,0.8,0.7,1,1.4,0.6
			c0.7,0.6-4,2.9-3.6,4.2c-0.7,0.2-1.4,0.3-1.9,1c0.4,0.4,0.8,0.7,1.4,0.8c-0.7,0.8-11.2,5.5-6.4,6.2c0.3,1.6-7.5,3.8-8.4,4.4
			c-0.2-0.1,2,2.2,1.9,2.2c-0.7,3.1-7.5,1.4-9,1.9c0.1,0.3,0.4,0.4,0.3,0.7c-1.2,0.5-2.1-0.7-3.3-0.4l0,1c-3,0.1-5.7-1.2-8.7-1.4
			c-2.8-0.2-5.3,1.3-8,1.8c-4.8,0.7-10.2-0.2-14.7,2c-6.6,3.1-4.2,11.8-3.1,17.6c0.7,3.6,1.6,7.2,2.7,10.8c0.7,2.4,2.9,5.4,3,7.8
			c-0.3,0.5-2.8,1-3.3,1c-1-0.2-2.2-6.9-2.4-8c-2-8.1-3.3-16.4-3.6-24.8c-3.9-10.7-26.1-5-34.3-7.5c0.1-0.3,1.1-0.5,1.1-1.2
			c-1.9-1.6-4.3,0.4-6.5-0.4l0.4-0.6c-0.9-0.5-3.7-0.5-4.9-0.6c-1.9-0.2-3.7-1.5-4.8-3.1c0.6,0.1,1.1-0.3,1.5-0.6
			c-0.7-1.1-2.7-2.3-3.8-3l0.1-0.1c-1.5-0.8-3.5-0.9-4.6-2.5c-0.1-1,1.2-0.6,1.6-1.3c-1.4-1.5-3.9-1.9-4.5-4.2
			c1-2.6-1.6-4.1-2.7-7.5c2-1.2,6,1.1,6.6-2.4c0-1.3-1-2.1-1.5-3.2l0.9,0.2c0-1.5-1.9-2.6-2.2-4.2c0.6-0.7,1.8-0.2,2.4-0.8
			c-0.9-2.5-4.6-4.5-4.7-7.3c0.3-0.6,1.1,0,1.5-0.5c-0.6-3-4.8-4.4-5.5-7.6c1.8-0.4,1.9-1.4,0.3-2.9c0.9-1.4-1-4.5-0.6-7
			c-0.3,0,4.3,2,3.4,1.7c1.7,0.4,4.2-0.2,5.6-1.8c-0.8-2.8-5-5.1-4.1-8.3c0.5,0,1.1-0.2,1.6-0.3c-1-2.3-2.9-4.2-3.2-6.8
			c1.1-0.9,1.2-1.6,0.2-3.4c1.4,0-0.5-4-0.2-5.4c2.9,1.6,6.6,4.3,9.9,1.8c0.9-0.5,1.2-1.4,0.8-2.4c-0.8-2.7,2-2.2,4-3.6
			c0-2.9-4.6-2-4-5.6c0.4,0,1,0.6,1.4,0c-0.5-2.4-2.8-9.2-0.5-11.6c0.7,3.6,10.6,4.4,9.6,0.6c-0.9-3.3,1.4-1.2,2.1-2.9
			c0.2-2.3-1.8-4-1.2-6.3c0.5-0.2,0.9,0.4,1.2,0.1c0.7-2.7-0.2-5.3,1.1-8.1c1-0.5,8.7,6.8,8-0.8c3-1.5,2.3-1.2,1.5-5.1
			c1-0.6,3.2-1,1.4-3.2c1.9-0.4-0.6-4.7,1.9-5.2c-0.5,2.8,2.7,2,4.2,2.9c1.3,0.3,0.7-3.8,0.7-4.2c0.4,0.2,1.4,0.6,1.6-0.1
			c-0.1-1.2-0.2-6.3,1.9-6.7c0,0.8,0.6,1.4,1.4,1.1c1.8-0.2,0.5-2.3,1-3.3l0.9,0.4c0.5-1.9-0.4-4.7,1.6-5.6v0.3
			c1.7-0.3,2.2-5.4,2.9-5.2c0,0.1-0.1,0.4,0.1,0.4c2.8-0.5,2-4.1,4.6-4.9L698.5,362"/>
		<path className="st1" d="M1331.1,264.3c-0.9,1.6-1.7,3.9-0.4,5.4c1.6,0.3,0.1,5.3,3.1,5.1c-0.9,0.1,3.8,9,4.8,4.7
			c1.7,1.9,3.7,17.6,9.8,11.2c0.7,1.5,0.3,3.9,0.4,5.5l1-0.2c-1.7,2.9,0.9,6.6,2.3,8.8c2.4,3.8,8.3-0.9,9-0.3l-0.5,7.3l0.9-0.2
			c1.3,3.4-2.1,6.8,0.8,9.4c1.6,1.4-1.2,2.8,2,4.2c2.9,1.2,4.5,0.5,6.9,0.3c0.1,3.4-1.1,6.2-0.9,9.6l0.8-0.1c-0.1,1.6-1.5,2.7-2,4.1
			c-0.3,1.1,0,2,1.2,2.6c-0.8,0.7-1.1,1.6-0.8,2.6c1.3,1.5,3.3,1.9,5.2,2.2c2.1,0.3,3.7-0.5,5.2-0.4c1,2.5-2.3,5-2.1,7.4
			c0.3,0.1,0.6-0.6,0.8-0.1c-0.2,2.2-3.3,2.8-2.6,5.2c0.4,0.2,0.9-0.2,1.2,0.2c-0.9,2.2-4,3-4.2,5.5c-1.8-1-0.4,3.1-1,3.9
			c0.5,0.1,0.9,0.1,1.4,0c-4.6,7.4,5.6,7.1,10,8c-0.6,2.5-3.5,5.2-5.1,6.7c0.1,0.5,0.8,0.4,1,0.4c-0.5,1.2-1.9,1.9-3,2.9
			c0.6,0.6,1.1-0.2,1.8,0.1c-0.1,2.8-4.4,3.4-3.9,5.1c-0.8,0.2-1.9,1-2.4,1.7c0.3,1.5,1.3,0.7,2.3,0.8c-0.5,1.7-10.8,6.1-6.3,7.2
			c-0.5,0.6-4.7,2.8-3,4.2c1.8,2.8,5.7,2.3,8.4,3.2c-0.5,2.4-3.7,3.3-4.9,5l0.9,0.4c-1.1,1.2-2.3,2.1-3.9,2.5
			c0.1,0.9,0.5,1.2,1.2,0.9c0.6,0.7-4.6,1.9-4.4,3.3c-0.7,0-1.5-0.1-2.1,0.6c0.2,0.5,0.6,0.9,1.2,1.1c-0.8,0.6-12.2,2.8-7.6,4.6
			c-0.1,1.6-8.2,2-9.2,2.3c-0.2-0.1,1.4,2.6,1.4,2.5c-1.4,2.9-7.6-0.4-9.2-0.2c0.1,0.3,0.3,0.5,0.1,0.7c-1.3,0.2-1.9-1.1-3.1-1.2
			l-0.2,1c-2.9-0.6-5.3-2.5-8.1-3.4c-2.7-0.8-5.4,0.1-8.2-0.1c-4.9-0.4-9.9-2.5-14.8-1.4c-7.2,1.5-6.8,10.5-7,16.5
			c-0.2,3.7,0,7.4,0.2,11.1c0.1,2.5,1.6,5.9,1.1,8.3c-0.4,0.5-2.9,0.4-3.4,0.2c-0.9-0.4-0.5-7.2-0.5-8.3c-0.1-8.4,0.5-16.8,2.1-25
			c-1.4-11.3-24.3-10.8-31.7-15.1c0.2-0.3,1.2-0.3,1.3-1c-1.5-2-4.3-0.6-6.2-1.8l0.5-0.5c-0.7-0.7-3.5-1.3-4.7-1.7
			c-1.8-0.6-3.3-2.3-3.9-4.1c0.6,0.2,1.1,0,1.6-0.2c-0.4-1.3-2.1-2.8-3-3.8l0.1-0.1c-1.3-1.1-3.2-1.6-3.9-3.5c0.1-1,1.3-0.3,1.9-0.9
			c-1-1.8-3.3-2.8-3.4-5.1c1.6-2.3-0.7-4.3-0.9-7.9c2.2-0.7,5.6,2.5,7-0.9c0.2-1.2-0.5-2.3-0.7-3.5l0.8,0.4c0.3-1.5-1.3-2.9-1.2-4.5
			c0.8-0.5,1.8,0.2,2.5-0.2c-0.3-2.6-3.5-5.4-3-8.2c0.4-0.5,1.1,0.3,1.6-0.2c0.1-3.1-3.7-5.3-3.7-8.6c1.9,0,2.2-0.9,1-2.7
			c1.2-1.2,0.1-4.6,1-6.9c-0.3,0,3.7,2.9,2.9,2.5c1.5,0.8,4.2,0.7,5.9-0.4c-0.1-2.9-3.7-6.1-2.1-9c0.4,0.1,1.1,0.1,1.7,0.1
			c-0.5-2.5-1.9-4.8-1.6-7.3c1.3-0.7,1.6-1.3,1-3.3c1.3,0.3,0.4-4,1.1-5.3c2.5,2.3,5.4,5.7,9.2,4c1-0.3,1.5-1,1.3-2.2
			c-0.2-2.8,2.4-1.7,4.7-2.6c0.7-2.8-4-3-2.6-6.4c0.4,0.1,0.8,0.8,1.3,0.3c0.1-2.5-0.7-9.6,2.1-11.4c-0.1,3.7,9.4,6.6,9.2,2.8
			c-0.1-3.5,1.6-0.8,2.7-2.3c0.7-2.2-0.8-4.3,0.3-6.4c0.5-0.1,0.8,0.6,1.2,0.4c1.3-2.4,1-5.2,2.9-7.7c1.1-0.3,6.9,8.6,7.9,1
			c3.3-0.8,2.5-0.7,2.6-4.6c1.1-0.4,3.3-0.3,2.1-2.8c1.9,0,0.4-4.7,3-4.7c-1.2,2.6,2.2,2.5,3.4,3.8c1.2,0.6,1.5-3.5,1.6-4
			c0.3,0.3,1.2,0.9,1.6,0.3c0.2-1.2,1.2-6.2,3.3-6.1c-0.2,0.8,0.3,1.5,1.1,1.4c1.8,0.2,0.9-2.1,1.7-3l0.8,0.6
			c0.9-1.7,0.6-4.6,2.8-5.1l-0.1,0.3c1.8,0.1,3.3-4.8,4-4.4c0,0.1-0.1,0.3,0,0.4c2.8,0.1,2.9-3.5,5.7-3.8L1331.1,264.3"/>
		<path className="st1" d="M1123.1,486.7c8.5-4.8,16.6-10.5,24.2-16.6c12.3-9.8,26.3-22.2,30.4-37.9c0.9-3.5,1.8-7.6,1.3-11.2
			c-0.2-1.5-1.2-3-2.7-3.3c-0.8-0.1-1.7,0.2-2.4,0.6c-2.5,1.4-4.2,4.6-7.1,5.3c-1.4,0.4-3-0.2-4-1.3c-5.7-5.8,2.3-16,6.3-20.1
			c14.9-15.4,18.5-29.3,9-26.5c-9.5,2.7-7.6-22.2,14.8-32.7s-2.1-25.2-23-6.5c0,0-0.7-14.1-9.2-11c-8.6,3.1-13,10.7-13.2,26
			c-0.3,15.3-13.3,21.3-17,6.4c-1.9-7.9-7.9-3.6-10.3,1.4c-1.8,3.7-2.6,8-2.3,12.2c0.3,6.5,4.2,11.3,6.5,17.2
			c1.7,4.4,2.5,9.4,0.8,13.8c-2.4,6-7.1,7.1-11.3,2c-9.5-11.6-22.5,30.1,13.4,55.8c0.5,0.4,5-6.6,5.2-7c3.2-5.5,4.7-11.1,5.8-17.3
			c2.7-14.7,0.7-30.3,4.2-44.7c2.8-11.6,10.2-22.2,19.8-29.4c0,0-18.4,13.7-14,43.4C1152.9,436.8,1144.1,469.1,1123.1,486.7
			L1123.1,486.7z"/>
		<path className="st1" d="M482.6,280.1c-4.1,2.8-4.5,7.4-2.8,11.6c1.1,0.8,2.1,1.6,3,2.5c-1.6,2.3-0.5,7.7,3.1,7.4
			c5.8-0.5,5.8,20.5,13.7,12.3c2.2,2.8,7.5,18.8,13.1,11.3c1.7,2.5,1.9,5.7,3.3,8.4c1.8,3.5,4.3,1.5,5,5.5c2.8-0.1,7.3,0.1,8.6-3.2
			c-0.5,4,7.1,18,12.1,14.7c4.3,5.8,3.8,11.2,9.6,2.8c5.2,3.8,8.6,9.5,13.7,10.6c3.5,0.7,6.5,4.3,10.3,2.8c4.6,2.8,7.2-2.9,10.1-2.6
			c-0.6,4.2,2.7,15.4,8.1,14.6c7.8-1.1,0.3,12.2,8.3,10.7c7.3-1.5,1.9,5,6.1,5.9c4.8,1.1,9.8-2.8,10.1-7.3
			c1.6,2.4,5.1,14.7,9.3,14.1c6.4-1-1.9,11.2,4.7,11.9c8.3,0.9,0.4,23.3,9.8,19.2c-1,4.1-1.8,8.3-4.2,12c2,0.2,1.3,2.6,0.9,3.6
			c-0.9,1.9-3.4,5.5-1.7,7.7c0.3,0.3,5.5,1.6,4.8,2.9c-3.6,6.5-18.5,17.3-17.6,23.4c-14.1,6.7-24.3,19.1-36.4,28.9
			c-5.9,4.8-16.2,7.8-12.8,16.3c3.2,8,8.8,14.6,13.5,21.7c10,15.2,5.1,31.6,7.6,48.7c2.5,9.9,4.5,19.9,6.5,29.8
			c1.2,5.5,6,13.7,1.4,18.3c-6.9-16-8.3-34.1-13.4-50.6c-1.7-5.7-2.8-15.5-9.9-16c-4.4-0.3-10.4-11.2-13.4-14.5
			c-10.7-11.6-22.8-18-37.7-22.7c-7.1-2.3-15.1-3.8-20.6-9.2c-6.7-6,13.2-3.8,14.5-3.5c16.1,4.7,33.1,9.3,46,20.6
			c4.9,2.9,6.9,6.9,12.4,3.4c5.8-3.7-2.9-13.4-5.8-18.5c-4.5-8-7.7-10.7-17.3-10.5c-9.3,0.2-18.5,1.5-27.9,1.4
			c-10.7-0.1-21.4-0.7-32.1-0.2c-3.1-7.3-10.8-3.1-17.3-5.9l1.2-2.5c-3.4-3.4-13.2-4.8-19-6.3c1.9-10.8-3.5-7.7-10.5-15.6
			c-0.7-2.4,2.4-2.9,2.8-4.9c-1.2-3.2-4-5.2-5.5-8.2c4.1-4.9-2.4-11.3-1.9-18c2,3.3,7.6,1,9.8-0.2c5.6-2.9-0.4-4.7,1.1-8.6
			c2-5.4,7.2,1.8,1.2-7.3c-4-6.1,2.5-6.5-1.4-11.3c0.5-3.2-0.6-8.3-1.8-11.9c2.2,1.6,5,0.4,7.6-0.4c6.9-2.1-2.2-6.7,3.1-8.9
			c6.7-1.3-4.6-5.9,0.4-9.2c3.5-3.1-1.9-7.2-2.1-9.8c2.5-2.3,8.7,2.6,10.1-3.3c0.1-2.1-0.4-4-1.6-5.7c1.3-0.5,2.5-1.3,3.5-2.3
			c1.1-1.7-1.5-5.5-0.5-8.3c1.3-3.5-2.3-6.1-2.7-9.4c2.6,2.9,10.4-0.5,6.4-5.4c0.5,0.6-3.6-13.8-3.6-14.5c1.8-1,5.3-0.9,6.5-3.2
			c-0.6-1.9-2.2-3.1-3.4-4.5c3.9-1.3-0.4-6.9-1.9-9.4c-2.6-4.5,6.3-5-0.1-9.2c0.7-0.3,1.4,0.3,1.6-0.8c-1.2-4.1-3.8-7.7-6.5-11
			c4.3-3.5,4.3-6.6-0.2-10.2C477,297.5,472.2,278.3,482.6,280.1"/>
		<path className="st1" d="M662.1,474.7c-10.5-1-19.3,4.2-30,1c-5-1.5-9.5-3.6-13.1-7.5c-1.1-1.3-5.3-11.3-5.7-11.4
			c-1.2-0.3-5,13.8-5.4,14.9c-0.7,2.2-1.4,4.4-2.1,6.6c-1.4,4.2,2.8,1.1,4.9,0.7c7.7-1.5,16.1,2.9,21.9,7.5c2.9,2.3,5.6,5.2,7.5,8.4
			c0.9,1.4,9.4,11.7,8.9,12.8c-0.3,0.6-23.3-3-25.4-3.7c-5.1-1.6-9.9-3.8-13.3-8c-1.5-1.9-4.4-11.6-5.7-12.2
			c0.3,0.1-9.3,22.4-8.3,24.9c-0.5-1.3,10.9-3.5,12.3-3.3c6.2,1.1,11.6,5.5,15.4,10.2c3.9,4.9,6.8,10.6,9.1,16.4
			c0.5,1.2,4.3,13.2,3.8,13c-3-1.1-6-6.1-8.8-7.9c-3.7-2.4-8.3-3.4-12.4-5.2c-4.6-2-9.4-4.2-12.8-7.9c-2.7-2.9-4-10.8-6.7-12.6
			c-0.4-0.3-10.9,33.7-11.4,35.7c-1.6,5.8-3.9,12.1-4.2,18.2c-0.3,5-5.4,7.3-4.6,1.3c0.3-2.7,2.1-5.3,2.9-8
			c4.3-14.1,8.6-28.2,12.6-42.4c0.4-1.4,2.1-7.5-1.5-4.2c-4.1,3.7-9.4,5.5-14.9,5.6c-5.8,0.1-11.6-1.5-16.9-4
			c-1.3-0.6-14.9-5.8-14.9-6.1c0,0,10.5-5.5,11.2-5.8c5.5-2.9,11.5-5.2,17.8-5.8c5.1-0.5,9.9,0,14,3.2c0.9,0.7,8.2,9.1,7,10
			c2.3-1.5,7.7-26.2,8-26.1c-0.9-0.3-4.2,2.5-5.1,2.9c-2.6,1.2-5.4,1.7-8.3,1.7c-5.2-0.1-10.3-1.8-15-4.1c-4.8-2.3-9.3-5.3-13.7-8.3
			c-1.4-1-13.4-5.1-9.5-5.7c10.4-1.5,20-6.7,30.8-5.5c5.6,0.6,11.6,2.9,15.8,6.9c2.2,2.1,3.2,8.2,5.1,9.5
			c-0.2-0.1,10.5-21.8,8.9-24.9c-0.2-0.3-9.9,3.7-11.3,3.9c-5.6,0.8-11.1-1.2-15.6-4.5c-5-3.6-8.7-8.4-12.6-13.1
			c-3.2-3.8-7.9-6.8-10.9-10.5c-1-1.3,9.4-1.3,9.8-1.2c5.8,0.3,11.7,1.1,17.4,2.5c5.9,1.5,11.2,4.2,15.5,8.6
			c2,2.1,5.5,10.8,7.8,11.8c1.6,0.6,6.3-13.9,6.8-15.1c0.9-2.3,1.7-4.6,2.6-6.8c1.4-3.5-6.3,0.6-7.9,0.7
			c-8.4,0.8-15.6-5.4-21.4-10.7c-3.1-2.8-6.1-5.9-8.8-9.1c-1.6-1.9-8.3-7.4-8.5-9.2c-0.1-0.5,23.3,2.4,25.2,2.9
			c5.3,1.3,11.7,2.8,15.6,6.8c1.8,1.9,3.2,4.1,4.3,6.5c0.9,2,0.9,6.8,2.2,8.3c-0.4-0.5,10.9-19.6,8.4-20.8c-1.2-0.6-6,2-8.1,1.5
			c-5.4-1.2-9.5-6-12.4-10.3c-3.1-4.5-5.3-9.4-7.3-14.5c-0.9-2.3-6-13.4-5.1-15.5c0.4-0.9,21.5,14.5,23.1,15.8
			c3.8,3.1,7.9,6.4,9.7,11.1c0.3,0.9,0.6,9.8,1.2,9.9c1.3,0.4,4.4-9.1,4.4-10.4c-0.1-2.7-2.3-5.7-2.7-8.5c-0.6-3.7-0.3-7.6,0.7-11.2
			c1.9-6.5,6.2-11,11.7-14.9c2.6-1.8,5.4-3.5,7.6-5.7c1-1,2.4-4.5,3.6-5.1c0.1-0.1,1.2,12.5,1.3,13.7c0.2,7.5-1.2,14.9-5,21.5
			c-2.4,4.2-5.9,7.8-10.5,9.6c-2.3,0.9-4,0.9-5.2,3.4c-0.4,0.8-2.7,7.9-2.7,7.9c2.6-1.1,4.5-3.9,7.2-5.2c4-1.8,8.4-2.1,12.7-1
			c4.6,1.2,9.4,2.2,14.3,2.3c1.5,0,10.7-0.5,10.4,0.1c-1,1.7-6.8,4.4-8.4,5.8c-4.1,3.4-7.7,7.3-12.9,9c-4.5,1.6-9.7,2.1-14.4,1.1
			c-2.3-0.5-4.6-1.4-6.4-3c-0.9-0.9-2.9-5.8-3.9-5.7c-1.1,0.2-8.7,19.5-7.7,20.4c-0.2-0.2,9.8-5.3,10.8-5.6
			c6.4-1.8,12.2-0.4,18.3,1.8c4.7,1.7,9.3,3.6,13.8,6c3.7,2,8.3,3.1,11.8,5c1,0.6-7.1,4.3-7.5,4.5c-5.8,2.3-11.9,4-18.1,4.7
			c-6.3,0.7-13,0.4-18.9-2.1c-2.9-1.2-5.8-2.9-7.7-5.3c-0.6-0.7-2.9-6.6-3.4-6.4c-2.3,1-9.6,20.6-8.4,23.1c-0.2-0.3,9-2.4,9.8-2.4
			c5.5-0.2,10.7,1.2,15.5,3.7c2.9,1.5,23.3,19.8,23.8,19.5C662.9,474.6,662.5,474.7,662.1,474.7"/>
		<path className="st1" d="M1513.7,344.7c3.6-5.4,6.8-11.3,9.5-17.2c4.4-9.5,9.1-21.2,6.9-31.9c-0.5-2.4-1.2-5.1-2.6-7.2
			c-0.6-0.8-1.6-1.5-2.6-1.2c-0.5,0.2-1,0.6-1.3,1.1c-1.1,1.6-1.2,4-2.7,5.3c-0.7,0.6-1.8,0.7-2.8,0.4c-5.2-1.8-3.4-10.3-2.3-14
			c4.3-13.7,2.3-23.2-2.5-18.7c-4.8,4.5-11.2-11.1-0.9-24.1c10.3-13-8.8-14.6-15.7,2.9c0,0-4.6-8.3-8.8-4
			c-4.2,4.4-4.6,10.3-0.1,19.6c4.4,9.3-1.6,16.8-8.2,8.9c-3.5-4.2-5.8,0.2-5.7,3.9c0,2.8,0.9,5.6,2.2,8c2.1,3.8,5.9,5.6,9,8.5
			c2.3,2.1,4.3,4.9,4.6,8.1c0.3,4.3-2.2,6.4-6.1,4.6c-9.2-4.2-4.5,24.8,24.7,29.8c0.4,0.1,1-5.5,1-5.8c0.2-4.2-0.5-8.1-1.7-12.2
			c-2.8-9.7-8.6-18.5-10.8-28.3c-1.8-7.9-0.5-16.4,3.1-23.7c0,0-6.9,13.7,4.6,30.3C1516.7,305.7,1521,327.9,1513.7,344.7
			L1513.7,344.7z"/>
		<path className="st1" d="M6.7,546.9c0,0,385.5-49.6,462.5-57.8s142.1,1.5,205.8,16.6c63.7,15.2,122.7-26.8,184.9-46.5
			c62.2-19.7,196.7-41.4,275.1-30.2c70,10,101.4,96.3,279.2,30.2s313.8-19.7,441.2,12.5c127.4,32.2,118.5,36,186.6,17.1
			c68.1-18.9,77.5-38.4,189.6-3.9c112.1,34.5,175,45.8,175,45.8v172.3H6.7V546.9L6.7,546.9z"/>
		<defs>
			<filter id="Adobe_OpacityMaskFilter" filterUnits="userSpaceOnUse" x="-98.1" y="356.5" width="2696.7" height="473.3">
				<feColorMatrix  type="matrix" values="1 0 0 0 0  0 1 0 0 0  0 0 1 0 0  0 0 0 1 0"/>
			</filter>
		</defs>
		
			<mask maskUnits="userSpaceOnUse" x="-98.1" y="356.5" width="2696.7" height="473.3" id="mask0_1909_675_00000043448500389684348560000011968227267943367300_">
			<path className="st2" d="M2400,287.7H0V600h2400V287.7z"/>
		</mask>
		<g className="st3">
			<path className="st4" d="M1643,436.3v184.3h-23.6v-73.4l-33.5-28.6v-111h-42.3l-24.6-21h-31.5v111.8h-75.8v127h-19.7V448.1
				l-55.1,24.4v105.9h-14.8V415.3h-18.7v-47.9h-18.7v-10.9h-7.9v9.3h-46.3v37h-43.3l-10.8,12.6v151.3h-36.9V536l-23.1-19.8v-72.3
				h-80.7v59.7H1006V554l-35.4,33.6h-22.7V427.9l-63-37v148h-14.8V437.2h-74.8v35.3h-34.5v169H746v-73.1h-50.2v-22.7l-8.9-10.9
				h-54.2l-3.9,295.1h934.6h56h23.6h64.1V436.3H1643z"/>
			<path className="st4" d="M916,543.5v76.1h-23.6v-30.3l-33.5-11.8v-45.8h-42.3L792,523h-31.5v46.2h-75.8v52.4H665v-73.2l-55.1,10.1
				v43.7H595v-67.3h-18.7v-19.8h-18.7v-4.5h-7.9v3.8h-46.3v15.3h-43.3l-10.8,5.2v62.5h-36.9v-12.7l-23.1-8.2v-29.8h-80.7v24.6H279
				v20.8L243.5,606h-22.6V540l-63-15.3v61.1h-14.8v-42H68.3v14.6H33.8v69.7H19V598h-50.2v-9.4l-8.9-4.5h-54.2l-3.9,121.8h934.6h56
				H916h64.1V543.5H916z"/>
			<path className="st4" d="M2534.5,481.5v129.8h-23.6v-51.6l-33.5-20.1v-78.1H2435l-24.6-14.8h-31.5v78.7h-75.8v89.4h-19.7V489.7
				l-55.1,17.2v74.6h-14.8V466.7h-18.7v-33.7h-18.7v-7.7h-7.9v6.5h-46.3v26h-43.3l-10.8,8.9v106.5h-36.9v-21.6l-23.1-13.9v-50.9
				h-80.8v42h-29.5v35.5L1862,588h-22.6V475.5l-63-26v104.2h-14.8v-71.6h-74.8v24.9h-34.5v119h-14.8v-51.5h-50.2v-16l-8.9-7.7h-54.2
				l-3.9,207.8h934.6h56h23.6h64.1v-277H2534.5z"/>
		</g>
	</g>
</g>
</svg>
